{"asset":{"version":"2.0","generator":"babylon.js glTF exporter for 3ds max 2019 v1.4.2"},"scene":0,"scenes":[{"nodes":[0,1,2,3,4,5,6,7,8,9,10,11,12,13,14],"extensions":{}}],"nodes":[{"mesh":0,"translation":[0.0,0.0,0.0],"rotation":[0.0,0.0,0.0,1.0],"scale":[1.0,1.0,1.0],"name":"C001-I001-Ding"},{"mesh":1,"translation":[0.0,0.0,0.0],"rotation":[0.0,0.0,0.0,1.0],"scale":[1.0,1.0,1.0],"name":"C001-I001-F001"},{"mesh":2,"translation":[0.0,0.0,0.0],"rotation":[0.0,0.0,0.0,1.0],"scale":[1.0,1.0,1.0],"name":"C001-I001-F002"},{"mesh":3,"translation":[0.0,0.0,0.0],"rotation":[0.0,0.0,0.0,1.0],"scale":[1.0,1.0,1.0],"name":"C001-I001-F003"},{"mesh":4,"translation":[0.0,0.0,0.0],"rotation":[0.0,0.0,0.0,1.0],"scale":[1.0,1.0,1.0],"name":"C001-I001-F004"},{"mesh":5,"translation":[0.0,0.0,0.0],"rotation":[0.0,0.0,0.0,1.0],"scale":[1.0,1.0,1.0],"name":"C001-I001-F005"},{"mesh":6,"translation":[0.0,0.0,0.0],"rotation":[0.0,0.0,0.0,1.0],"scale":[1.0,1.0,1.0],"name":"C001-I001-F006"},{"mesh":7,"translation":[0.0,0.0,0.0],"rotation":[0.0,0.0,0.0,1.0],"scale":[1.0,1.0,1.0],"name":"C001-I001-F007"},{"mesh":8,"translation":[0.0,0.0,0.0],"rotation":[0.0,0.0,0.0,1.0],"scale":[1.0,1.0,1.0],"name":"C001-I001-F008"},{"mesh":9,"translation":[0.0,0.0,0.0],"rotation":[0.0,0.0,0.0,1.0],"scale":[1.0,1.0,1.0],"name":"C001-I001-F009"},{"mesh":10,"translation":[0.0,0.0,0.0],"rotation":[0.0,0.0,0.0,1.0],"scale":[1.0,1.0,1.0],"name":"C001-I001-F010"},{"mesh":11,"translation":[0.0,0.0,0.0],"rotation":[0.0,0.0,0.0,1.0],"scale":[1.0,1.0,1.0],"name":"C001-I001-F011"},{"mesh":12,"translation":[0.0,0.0,0.0],"rotation":[0.0,0.0,0.0,1.0],"scale":[1.0,1.0,1.0],"name":"C001-I001-F012"},{"mesh":13,"translation":[0.0,0.0,0.0],"rotation":[0.0,0.0,0.0,1.0],"scale":[1.0,1.0,1.0],"name":"C001-I001-F013"},{"translation":[0.0,0.0,0.0],"rotation":[0.0,0.0,0.0,1.0],"scale":[1.0,1.0,1.0],"name":"Default light"}],"meshes":[{"primitives":[{"attributes":{"POSITION":1,"NORMAL":2,"TEXCOORD_0":3,"TEXCOORD_1":4},"indices":0,"mode":4,"material":0},{"attributes":{"POSITION":6,"NORMAL":7,"TEXCOORD_0":8,"TEXCOORD_1":9},"indices":5,"mode":4,"material":1},{"attributes":{"POSITION":11,"NORMAL":12,"TEXCOORD_0":13,"TEXCOORD_1":14},"indices":10,"mode":4,"material":2}],"name":"C001-I001-Ding"},{"primitives":[{"attributes":{"POSITION":16,"NORMAL":17,"TEXCOORD_0":18,"TEXCOORD_1":19},"indices":15,"mode":4,"material":0},{"attributes":{"POSITION":21,"NORMAL":22,"TEXCOORD_0":23,"TEXCOORD_1":24},"indices":20,"mode":4,"material":3}],"name":"C001-I001-F001"},{"primitives":[{"attributes":{"POSITION":26,"NORMAL":27,"TEXCOORD_0":28,"TEXCOORD_1":29},"indices":25,"mode":4,"material":0},{"attributes":{"POSITION":31,"NORMAL":32,"TEXCOORD_0":33,"TEXCOORD_1":34},"indices":30,"mode":4,"material":3}],"name":"C001-I001-F002"},{"primitives":[{"attributes":{"POSITION":36,"NORMAL":37,"TEXCOORD_0":38,"TEXCOORD_1":39},"indices":35,"mode":4,"material":0},{"attributes":{"POSITION":41,"NORMAL":42,"TEXCOORD_0":43,"TEXCOORD_1":44},"indices":40,"mode":4,"material":3}],"name":"C001-I001-F003"},{"primitives":[{"attributes":{"POSITION":46,"NORMAL":47,"TEXCOORD_0":48,"TEXCOORD_1":49},"indices":45,"mode":4,"material":0},{"attributes":{"POSITION":51,"NORMAL":52,"TEXCOORD_0":53,"TEXCOORD_1":54},"indices":50,"mode":4,"material":3}],"name":"C001-I001-F004"},{"primitives":[{"attributes":{"POSITION":56,"NORMAL":57,"TEXCOORD_0":58,"TEXCOORD_1":59},"indices":55,"mode":4,"material":0},{"attributes":{"POSITION":61,"NORMAL":62,"TEXCOORD_0":63,"TEXCOORD_1":64},"indices":60,"mode":4,"material":3}],"name":"C001-I001-F005"},{"primitives":[{"attributes":{"POSITION":66,"NORMAL":67,"TEXCOORD_0":68,"TEXCOORD_1":69},"indices":65,"mode":4,"material":0},{"attributes":{"POSITION":71,"NORMAL":72,"TEXCOORD_0":73,"TEXCOORD_1":74},"indices":70,"mode":4,"material":3}],"name":"C001-I001-F006"},{"primitives":[{"attributes":{"POSITION":76,"NORMAL":77,"TEXCOORD_0":78,"TEXCOORD_1":79},"indices":75,"mode":4,"material":0},{"attributes":{"POSITION":81,"NORMAL":82,"TEXCOORD_0":83,"TEXCOORD_1":84},"indices":80,"mode":4,"material":3}],"name":"C001-I001-F007"},{"primitives":[{"attributes":{"POSITION":86,"NORMAL":87,"TEXCOORD_0":88,"TEXCOORD_1":89},"indices":85,"mode":4,"material":0},{"attributes":{"POSITION":91,"NORMAL":92,"TEXCOORD_0":93,"TEXCOORD_1":94},"indices":90,"mode":4,"material":3}],"name":"C001-I001-F008"},{"primitives":[{"attributes":{"POSITION":96,"NORMAL":97,"TEXCOORD_0":98,"TEXCOORD_1":99},"indices":95,"mode":4,"material":0},{"attributes":{"POSITION":101,"NORMAL":102,"TEXCOORD_0":103,"TEXCOORD_1":104},"indices":100,"mode":4,"material":3}],"name":"C001-I001-F009"},{"primitives":[{"attributes":{"POSITION":106,"NORMAL":107,"TEXCOORD_0":108,"TEXCOORD_1":109},"indices":105,"mode":4,"material":0},{"attributes":{"POSITION":111,"NORMAL":112,"TEXCOORD_0":113,"TEXCOORD_1":114},"indices":110,"mode":4,"material":3}],"name":"C001-I001-F010"},{"primitives":[{"attributes":{"POSITION":116,"NORMAL":117,"TEXCOORD_0":118,"TEXCOORD_1":119},"indices":115,"mode":4,"material":0},{"attributes":{"POSITION":121,"NORMAL":122,"TEXCOORD_0":123,"TEXCOORD_1":124},"indices":120,"mode":4,"material":3}],"name":"C001-I001-F011"},{"primitives":[{"attributes":{"POSITION":126,"NORMAL":127,"TEXCOORD_0":128,"TEXCOORD_1":129},"indices":125,"mode":4,"material":0},{"attributes":{"POSITION":131,"NORMAL":132,"TEXCOORD_0":133,"TEXCOORD_1":134},"indices":130,"mode":4,"material":3}],"name":"C001-I001-F012"},{"primitives":[{"attributes":{"POSITION":136,"NORMAL":137,"TEXCOORD_0":138,"TEXCOORD_1":139},"indices":135,"mode":4,"material":0},{"attributes":{"POSITION":141,"NORMAL":142,"TEXCOORD_0":143,"TEXCOORD_1":144},"indices":140,"mode":4,"material":3}],"name":"C001-I001-F013"}],"accessors":[{"bufferView":0,"componentType":5123,"count":249,"type":"SCALAR","name":"accessorIndices"},{"bufferView":1,"componentType":5126,"count":249,"max":[-96.8415146,4.108756,65.09608],"min":[-102.993317,3.8733995,61.11019],"type":"VEC3","name":"accessorPositions"},{"bufferView":1,"byteOffset":2988,"componentType":5126,"count":249,"type":"VEC3","name":"accessorNormals"},{"bufferView":2,"componentType":5126,"count":249,"type":"VEC2","name":"accessorUVs"},{"bufferView":2,"byteOffset":1992,"componentType":5126,"count":249,"type":"VEC2","name":"accessorUV2s"},{"bufferView":0,"byteOffset":500,"componentType":5123,"count":9,"type":"SCALAR","name":"accessorIndices"},{"bufferView":1,"byteOffset":5976,"componentType":5126,"count":9,"max":[-98.52532,4.08875561,63.7104263],"min":[-101.215027,4.088751,62.46003],"type":"VEC3","name":"accessorPositions"},{"bufferView":1,"byteOffset":6084,"componentType":5126,"count":9,"type":"VEC3","name":"accessorNormals"},{"bufferView":2,"byteOffset":3984,"componentType":5126,"count":9,"type":"VEC2","name":"accessorUVs"},{"bufferView":2,"byteOffset":4056,"componentType":5126,"count":9,"type":"VEC2","name":"accessorUV2s"},{"bufferView":0,"byteOffset":520,"componentType":5123,"count":9,"type":"SCALAR","name":"accessorIndices"},{"bufferView":1,"byteOffset":6192,"componentType":5126,"count":9,"max":[-96.87494,3.87340045,65.06333],"min":[-102.957817,3.8733995,61.1521149],"type":"VEC3","name":"accessorPositions"},{"bufferView":1,"byteOffset":6300,"componentType":5126,"count":9,"type":"VEC3","name":"accessorNormals"},{"bufferView":2,"byteOffset":4128,"componentType":5126,"count":9,"type":"VEC2","name":"accessorUVs"},{"bufferView":2,"byteOffset":4200,"componentType":5126,"count":9,"type":"VEC2","name":"accessorUV2s"},{"bufferView":0,"byteOffset":540,"componentType":5123,"count":717,"type":"SCALAR","name":"accessorIndices"},{"bufferView":1,"byteOffset":6408,"componentType":5126,"count":717,"max":[-96.78765,-1.1092782,65.4989],"min":[-103.640083,-2.20487833,61.06164],"type":"VEC3","name":"accessorPositions"},{"bufferView":1,"byteOffset":15012,"componentType":5126,"count":717,"type":"VEC3","name":"accessorNormals"},{"bufferView":2,"byteOffset":4272,"componentType":5126,"count":717,"type":"VEC2","name":"accessorUVs"},{"bufferView":2,"byteOffset":10008,"componentType":5126,"count":717,"type":"VEC2","name":"accessorUV2s"},{"bufferView":0,"byteOffset":1976,"componentType":5123,"count":48,"type":"SCALAR","name":"accessorIndices"},{"bufferView":1,"byteOffset":23616,"componentType":5126,"count":48,"max":[-96.84153,-2.15987825,65.4498444],"min":[-103.591141,-2.15987825,61.1101952],"type":"VEC3","name":"accessorPositions"},{"bufferView":1,"byteOffset":24192,"componentType":5126,"count":48,"type":"VEC3","name":"accessorNormals"},{"bufferView":2,"byteOffset":15744,"componentType":5126,"count":48,"type":"VEC2","name":"accessorUVs"},{"bufferView":2,"byteOffset":16128,"componentType":5126,"count":48,"type":"VEC2","name":"accessorUV2s"},{"bufferView":0,"byteOffset":2072,"componentType":5123,"count":135,"type":"SCALAR","name":"accessorIndices"},{"bufferView":1,"byteOffset":24768,"componentType":5126,"count":135,"max":[-96.84157,-1.1092689,65.56092],"min":[-103.591171,-1.63459039,61.11019],"type":"VEC3","name":"accessorPositions"},{"bufferView":1,"byteOffset":26388,"componentType":5126,"count":135,"type":"VEC3","name":"accessorNormals"},{"bufferView":2,"byteOffset":16512,"componentType":5126,"count":135,"type":"VEC2","name":"accessorUVs"},{"bufferView":2,"byteOffset":17592,"componentType":5126,"count":135,"type":"VEC2","name":"accessorUV2s"},{"bufferView":0,"byteOffset":2344,"componentType":5123,"count":75,"type":"SCALAR","name":"accessorIndices"},{"bufferView":1,"byteOffset":28008,"componentType":5126,"count":75,"max":[-96.84157,-1.63455808,65.44984],"min":[-103.591171,-1.63457966,61.11019],"type":"VEC3","name":"accessorPositions"},{"bufferView":1,"byteOffset":28908,"componentType":5126,"count":75,"type":"VEC3","name":"accessorNormals"},{"bufferView":2,"byteOffset":18672,"componentType":5126,"count":75,"type":"VEC2","name":"accessorUVs"},{"bufferView":2,"byteOffset":19272,"componentType":5126,"count":75,"type":"VEC2","name":"accessorUV2s"},{"bufferView":0,"byteOffset":2496,"componentType":5123,"count":384,"type":"SCALAR","name":"accessorIndices"},{"bufferView":1,"byteOffset":29808,"componentType":5126,"count":384,"max":[-96.84157,-0.5439782,65.56092],"min":[-103.591171,-1.10927832,61.11019],"type":"VEC3","name":"accessorPositions"},{"bufferView":1,"byteOffset":34416,"componentType":5126,"count":384,"type":"VEC3","name":"accessorNormals"},{"bufferView":2,"byteOffset":19872,"componentType":5126,"count":384,"type":"VEC2","name":"accessorUVs"},{"bufferView":2,"byteOffset":22944,"componentType":5126,"count":384,"type":"VEC2","name":"accessorUV2s"},{"bufferView":0,"byteOffset":3264,"componentType":5123,"count":39,"type":"SCALAR","name":"accessorIndices"},{"bufferView":1,"byteOffset":39024,"componentType":5126,"count":39,"max":[-96.84157,-1.10926747,65.56092],"min":[-103.591171,-1.10927832,61.11019],"type":"VEC3","name":"accessorPositions"},{"bufferView":1,"byteOffset":39492,"componentType":5126,"count":39,"type":"VEC3","name":"accessorNormals"},{"bufferView":2,"byteOffset":26016,"componentType":5126,"count":39,"type":"VEC2","name":"accessorUVs"},{"bufferView":2,"byteOffset":26328,"componentType":5126,"count":39,"type":"VEC2","name":"accessorUV2s"},{"bufferView":0,"byteOffset":3344,"componentType":5123,"count":27,"type":"SCALAR","name":"accessorIndices"},{"bufferView":1,"byteOffset":39960,"componentType":5126,"count":27,"max":[-96.8415146,-0.115954161,65.09608],"min":[-102.993317,-0.5839791,61.11019],"type":"VEC3","name":"accessorPositions"},{"bufferView":1,"byteOffset":40284,"componentType":5126,"count":27,"type":"VEC3","name":"accessorNormals"},{"bufferView":2,"byteOffset":26640,"componentType":5126,"count":27,"type":"VEC2","name":"accessorUVs"},{"bufferView":2,"byteOffset":26856,"componentType":5126,"count":27,"type":"VEC2","name":"accessorUV2s"},{"bufferView":0,"byteOffset":3400,"componentType":5123,"count":9,"type":"SCALAR","name":"accessorIndices"},{"bufferView":1,"byteOffset":40608,"componentType":5126,"count":9,"max":[-96.8415146,-0.5839791,65.09608],"min":[-102.993317,-0.5839791,61.11019],"type":"VEC3","name":"accessorPositions"},{"bufferView":1,"byteOffset":40716,"componentType":5126,"count":9,"type":"VEC3","name":"accessorNormals"},{"bufferView":2,"byteOffset":27072,"componentType":5126,"count":9,"type":"VEC2","name":"accessorUVs"},{"bufferView":2,"byteOffset":27144,"componentType":5126,"count":9,"type":"VEC2","name":"accessorUV2s"},{"bufferView":0,"byteOffset":3420,"componentType":5123,"count":24,"type":"SCALAR","name":"accessorIndices"},{"bufferView":1,"byteOffset":40824,"componentType":5126,"count":24,"max":[-96.8415146,0.352071047,65.09608],"min":[-102.993317,-0.115953684,61.11019],"type":"VEC3","name":"accessorPositions"},{"bufferView":1,"byteOffset":41112,"componentType":5126,"count":24,"type":"VEC3","name":"accessorNormals"},{"bufferView":2,"byteOffset":27216,"componentType":5126,"count":24,"type":"VEC2","name":"accessorUVs"},{"bufferView":2,"byteOffset":27408,"componentType":5126,"count":24,"type":"VEC2","name":"accessorUV2s"},{"bufferView":0,"byteOffset":3468,"componentType":5123,"count":9,"type":"SCALAR","name":"accessorIndices"},{"bufferView":1,"byteOffset":41400,"componentType":5126,"count":9,"max":[-96.8415146,-0.115953684,65.09608],"min":[-102.993317,-0.115953684,61.11019],"type":"VEC3","name":"accessorPositions"},{"bufferView":1,"byteOffset":41508,"componentType":5126,"count":9,"type":"VEC3","name":"accessorNormals"},{"bufferView":2,"byteOffset":27600,"componentType":5126,"count":9,"type":"VEC2","name":"accessorUVs"},{"bufferView":2,"byteOffset":27672,"componentType":5126,"count":9,"type":"VEC2","name":"accessorUV2s"},{"bufferView":0,"byteOffset":3488,"componentType":5123,"count":24,"type":"SCALAR","name":"accessorIndices"},{"bufferView":1,"byteOffset":41616,"componentType":5126,"count":24,"max":[-96.8415146,0.7981057,65.09608],"min":[-102.993317,0.352070332,61.11019],"type":"VEC3","name":"accessorPositions"},{"bufferView":1,"byteOffset":41904,"componentType":5126,"count":24,"type":"VEC3","name":"accessorNormals"},{"bufferView":2,"byteOffset":27744,"componentType":5126,"count":24,"type":"VEC2","name":"accessorUVs"},{"bufferView":2,"byteOffset":27936,"componentType":5126,"count":24,"type":"VEC2","name":"accessorUV2s"},{"bufferView":0,"byteOffset":3536,"componentType":5123,"count":9,"type":"SCALAR","name":"accessorIndices"},{"bufferView":1,"byteOffset":42192,"componentType":5126,"count":9,"max":[-96.8415146,0.352071762,65.09608],"min":[-102.993317,0.352071762,61.11019],"type":"VEC3","name":"accessorPositions"},{"bufferView":1,"byteOffset":42300,"componentType":5126,"count":9,"type":"VEC3","name":"accessorNormals"},{"bufferView":2,"byteOffset":28128,"componentType":5126,"count":9,"type":"VEC2","name":"accessorUVs"},{"bufferView":2,"byteOffset":28200,"componentType":5126,"count":9,"type":"VEC2","name":"accessorUV2s"},{"bufferView":0,"byteOffset":3556,"componentType":5123,"count":24,"type":"SCALAR","name":"accessorIndices"},{"bufferView":1,"byteOffset":42408,"componentType":5126,"count":24,"max":[-96.8415146,1.24414134,65.09608],"min":[-102.993317,0.7981057,61.11019],"type":"VEC3","name":"accessorPositions"},{"bufferView":1,"byteOffset":42696,"componentType":5126,"count":24,"type":"VEC3","name":"accessorNormals"},{"bufferView":2,"byteOffset":28272,"componentType":5126,"count":24,"type":"VEC2","name":"accessorUVs"},{"bufferView":2,"byteOffset":28464,"componentType":5126,"count":24,"type":"VEC2","name":"accessorUV2s"},{"bufferView":0,"byteOffset":3604,"componentType":5123,"count":9,"type":"SCALAR","name":"accessorIndices"},{"bufferView":1,"byteOffset":42984,"componentType":5126,"count":9,"max":[-96.8415146,0.7981057,65.09608],"min":[-102.993317,0.7981057,61.11019],"type":"VEC3","name":"accessorPositions"},{"bufferView":1,"byteOffset":43092,"componentType":5126,"count":9,"type":"VEC3","name":"accessorNormals"},{"bufferView":2,"byteOffset":28656,"componentType":5126,"count":9,"type":"VEC2","name":"accessorUVs"},{"bufferView":2,"byteOffset":28728,"componentType":5126,"count":9,"type":"VEC2","name":"accessorUV2s"},{"bufferView":0,"byteOffset":3624,"componentType":5123,"count":24,"type":"SCALAR","name":"accessorIndices"},{"bufferView":1,"byteOffset":43200,"componentType":5126,"count":24,"max":[-96.8415146,1.69017649,65.09608],"min":[-102.993317,1.24414086,61.11019],"type":"VEC3","name":"accessorPositions"},{"bufferView":1,"byteOffset":43488,"componentType":5126,"count":24,"type":"VEC3","name":"accessorNormals"},{"bufferView":2,"byteOffset":28800,"componentType":5126,"count":24,"type":"VEC2","name":"accessorUVs"},{"bufferView":2,"byteOffset":28992,"componentType":5126,"count":24,"type":"VEC2","name":"accessorUV2s"},{"bufferView":0,"byteOffset":3672,"componentType":5123,"count":9,"type":"SCALAR","name":"accessorIndices"},{"bufferView":1,"byteOffset":43776,"componentType":5126,"count":9,"max":[-96.8415146,1.2441411,65.09608],"min":[-102.993317,1.2441411,61.11019],"type":"VEC3","name":"accessorPositions"},{"bufferView":1,"byteOffset":43884,"componentType":5126,"count":9,"type":"VEC3","name":"accessorNormals"},{"bufferView":2,"byteOffset":29184,"componentType":5126,"count":9,"type":"VEC2","name":"accessorUVs"},{"bufferView":2,"byteOffset":29256,"componentType":5126,"count":9,"type":"VEC2","name":"accessorUV2s"},{"bufferView":0,"byteOffset":3692,"componentType":5123,"count":24,"type":"SCALAR","name":"accessorIndices"},{"bufferView":1,"byteOffset":43992,"componentType":5126,"count":24,"max":[-96.8415146,2.13621187,65.09608],"min":[-102.993317,1.69017553,61.11019],"type":"VEC3","name":"accessorPositions"},{"bufferView":1,"byteOffset":44280,"componentType":5126,"count":24,"type":"VEC3","name":"accessorNormals"},{"bufferView":2,"byteOffset":29328,"componentType":5126,"count":24,"type":"VEC2","name":"accessorUVs"},{"bufferView":2,"byteOffset":29520,"componentType":5126,"count":24,"type":"VEC2","name":"accessorUV2s"},{"bufferView":0,"byteOffset":3740,"componentType":5123,"count":9,"type":"SCALAR","name":"accessorIndices"},{"bufferView":1,"byteOffset":44568,"componentType":5126,"count":9,"max":[-96.8415146,1.690176,65.09608],"min":[-102.993317,1.690176,61.11019],"type":"VEC3","name":"accessorPositions"},{"bufferView":1,"byteOffset":44676,"componentType":5126,"count":9,"type":"VEC3","name":"accessorNormals"},{"bufferView":2,"byteOffset":29712,"componentType":5126,"count":9,"type":"VEC2","name":"accessorUVs"},{"bufferView":2,"byteOffset":29784,"componentType":5126,"count":9,"type":"VEC2","name":"accessorUV2s"},{"bufferView":0,"byteOffset":3760,"componentType":5123,"count":24,"type":"SCALAR","name":"accessorIndices"},{"bufferView":1,"byteOffset":44784,"componentType":5126,"count":24,"max":[-96.8415146,2.58224678,65.09608],"min":[-102.993317,2.136211,61.11019],"type":"VEC3","name":"accessorPositions"},{"bufferView":1,"byteOffset":45072,"componentType":5126,"count":24,"type":"VEC3","name":"accessorNormals"},{"bufferView":2,"byteOffset":29856,"componentType":5126,"count":24,"type":"VEC2","name":"accessorUVs"},{"bufferView":2,"byteOffset":30048,"componentType":5126,"count":24,"type":"VEC2","name":"accessorUV2s"},{"bufferView":0,"byteOffset":3808,"componentType":5123,"count":9,"type":"SCALAR","name":"accessorIndices"},{"bufferView":1,"byteOffset":45360,"componentType":5126,"count":9,"max":[-96.8415146,2.136211,65.09608],"min":[-102.993317,2.136211,61.11019],"type":"VEC3","name":"accessorPositions"},{"bufferView":1,"byteOffset":45468,"componentType":5126,"count":9,"type":"VEC3","name":"accessorNormals"},{"bufferView":2,"byteOffset":30240,"componentType":5126,"count":9,"type":"VEC2","name":"accessorUVs"},{"bufferView":2,"byteOffset":30312,"componentType":5126,"count":9,"type":"VEC2","name":"accessorUV2s"},{"bufferView":0,"byteOffset":3828,"componentType":5123,"count":24,"type":"SCALAR","name":"accessorIndices"},{"bufferView":1,"byteOffset":45576,"componentType":5126,"count":24,"max":[-96.8415146,3.02828169,65.09608],"min":[-102.993317,2.5822463,61.11019],"type":"VEC3","name":"accessorPositions"},{"bufferView":1,"byteOffset":45864,"componentType":5126,"count":24,"type":"VEC3","name":"accessorNormals"},{"bufferView":2,"byteOffset":30384,"componentType":5126,"count":24,"type":"VEC2","name":"accessorUVs"},{"bufferView":2,"byteOffset":30576,"componentType":5126,"count":24,"type":"VEC2","name":"accessorUV2s"},{"bufferView":0,"byteOffset":3876,"componentType":5123,"count":9,"type":"SCALAR","name":"accessorIndices"},{"bufferView":1,"byteOffset":46152,"componentType":5126,"count":9,"max":[-96.8415146,2.5822463,65.09608],"min":[-102.993317,2.5822463,61.11019],"type":"VEC3","name":"accessorPositions"},{"bufferView":1,"byteOffset":46260,"componentType":5126,"count":9,"type":"VEC3","name":"accessorNormals"},{"bufferView":2,"byteOffset":30768,"componentType":5126,"count":9,"type":"VEC2","name":"accessorUVs"},{"bufferView":2,"byteOffset":30840,"componentType":5126,"count":9,"type":"VEC2","name":"accessorUV2s"},{"bufferView":0,"byteOffset":3896,"componentType":5123,"count":24,"type":"SCALAR","name":"accessorIndices"},{"bufferView":1,"byteOffset":46368,"componentType":5126,"count":24,"max":[-96.8415146,3.45084071,65.09608],"min":[-102.993317,3.0282805,61.11019],"type":"VEC3","name":"accessorPositions"},{"bufferView":1,"byteOffset":46656,"componentType":5126,"count":24,"type":"VEC3","name":"accessorNormals"},{"bufferView":2,"byteOffset":30912,"componentType":5126,"count":24,"type":"VEC2","name":"accessorUVs"},{"bufferView":2,"byteOffset":31104,"componentType":5126,"count":24,"type":"VEC2","name":"accessorUV2s"},{"bufferView":0,"byteOffset":3944,"componentType":5123,"count":9,"type":"SCALAR","name":"accessorIndices"},{"bufferView":1,"byteOffset":46944,"componentType":5126,"count":9,"max":[-96.8415146,3.028281,65.09608],"min":[-102.993317,3.028281,61.11019],"type":"VEC3","name":"accessorPositions"},{"bufferView":1,"byteOffset":47052,"componentType":5126,"count":9,"type":"VEC3","name":"accessorNormals"},{"bufferView":2,"byteOffset":31296,"componentType":5126,"count":9,"type":"VEC2","name":"accessorUVs"},{"bufferView":2,"byteOffset":31368,"componentType":5126,"count":9,"type":"VEC2","name":"accessorUV2s"},{"bufferView":0,"byteOffset":3964,"componentType":5123,"count":27,"type":"SCALAR","name":"accessorIndices"},{"bufferView":1,"byteOffset":47160,"componentType":5126,"count":27,"max":[-96.8415146,3.87340045,65.09608],"min":[-102.993317,3.45083976,61.11019],"type":"VEC3","name":"accessorPositions"},{"bufferView":1,"byteOffset":47484,"componentType":5126,"count":27,"type":"VEC3","name":"accessorNormals"},{"bufferView":2,"byteOffset":31440,"componentType":5126,"count":27,"type":"VEC2","name":"accessorUVs"},{"bufferView":2,"byteOffset":31656,"componentType":5126,"count":27,"type":"VEC2","name":"accessorUV2s"},{"bufferView":0,"byteOffset":4020,"componentType":5123,"count":9,"type":"SCALAR","name":"accessorIndices"},{"bufferView":1,"byteOffset":47808,"componentType":5126,"count":9,"max":[-96.8415146,3.45083976,65.09608],"min":[-102.993317,3.45083976,61.11019],"type":"VEC3","name":"accessorPositions"},{"bufferView":1,"byteOffset":47916,"componentType":5126,"count":9,"type":"VEC3","name":"accessorNormals"},{"bufferView":2,"byteOffset":31872,"componentType":5126,"count":9,"type":"VEC2","name":"accessorUVs"},{"bufferView":2,"byteOffset":31944,"componentType":5126,"count":9,"type":"VEC2","name":"accessorUV2s"}],"bufferViews":[{"buffer":0,"byteLength":4040,"name":"bufferViewScalar"},{"buffer":0,"byteOffset":4040,"byteLength":48024,"byteStride":12,"name":"bufferViewFloatVec3"},{"buffer":0,"byteOffset":52064,"byteLength":32016,"byteStride":8,"name":"bufferViewFloatVec2"}],"buffers":[{"uri":"C001-I001.bin","byteLength":84080}],"materials":[{"pbrMetallicRoughness":{"baseColorFactor":[0.5,0.5,0.5,1.0],"baseColorTexture":{"index":0,"texCoord":0},"metallicFactor":0.0,"roughnessFactor":0.450053632},"emissiveFactor":[0.0,0.0,0.0],"alphaMode":"BLEND","name":"C001-I001-F003"},{"pbrMetallicRoughness":{"baseColorFactor":[0.5,0.5,0.5,1.0],"baseColorTexture":{"index":1,"texCoord":0},"metallicFactor":0.0,"roughnessFactor":0.450053632},"emissiveFactor":[0.0,0.0,0.0],"alphaMode":"OPAQUE","name":"Material #673"},{"pbrMetallicRoughness":{"baseColorFactor":[0.5,0.5,0.5,1.0],"baseColorTexture":{"index":2,"texCoord":0},"metallicFactor":0.0,"roughnessFactor":0.450053632},"emissiveFactor":[0.0,0.0,0.0],"alphaMode":"BLEND","name":"Material #575"},{"pbrMetallicRoughness":{"baseColorFactor":[0.5,0.5,0.5,1.0],"baseColorTexture":{"index":3,"texCoord":0},"metallicFactor":0.0,"roughnessFactor":0.450053632},"emissiveFactor":[0.0,0.0,0.0],"alphaMode":"BLEND","name":"Material #69063"}],"textures":[{"sampler":0,"source":0,"name":"C001-I001-F003.jpg"},{"sampler":0,"source":1,"name":"5W54B029.jpg"},{"sampler":0,"source":2,"name":"5T56Z007.jpg"},{"sampler":0,"source":3,"name":"DM0YLF03.jpg"}],"images":[{"uri":"C001-I001-F003.jpg"},{"uri":"5W54B029.jpg"},{"uri":"5T56Z007.jpg"},{"uri":"DM0YLF03.jpg"}],"samplers":[{"magFilter":9729,"minFilter":9987,"wrapS":10497,"wrapT":10497}]}