{"asset":{"version":"2.0","generator":"babylon.js glTF exporter for 3ds max 2019 v1.4.2"},"scene":0,"scenes":[{"nodes":[0,1,2,3,4,5,6,7,8],"extensions":{}}],"nodes":[{"mesh":0,"translation":[0.0,0.0,0.0],"rotation":[0.0,0.0,0.7071068,0.7071067],"scale":[0.31171003,1.0,1.0],"name":"ylf_q"},{"mesh":1,"translation":[0.0,0.0,0.0],"rotation":[0.0,0.0,0.7071068,0.7071067],"scale":[0.31171003,1.0,1.0],"name":"lr_q"},{"mesh":2,"translation":[0.0,0.0,0.0],"rotation":[0.0,0.0,0.7071068,0.7071067],"scale":[0.31171003,1.0,1.0],"name":"zhy_q"},{"mesh":3,"translation":[0.0,0.0,0.0],"rotation":[0.0,0.0,0.7071068,0.7071067],"scale":[0.31171003,1.0,1.0],"name":"ztsdgc_q"},{"mesh":4,"translation":[0.0,0.0,0.0],"rotation":[0.0,0.0,0.7071068,0.7071067],"scale":[0.31171003,1.0,1.0],"name":"sbyzx_q"},{"mesh":5,"translation":[0.0,0.0,0.0],"rotation":[0.0,0.0,0.7071068,0.7071067],"scale":[0.31171003,1.0,1.0],"name":"xx_q"},{"mesh":6,"translation":[0.0,0.0,0.0],"rotation":[0.0,0.0,0.7071068,0.7071067],"scale":[0.31171003,1.0,1.0],"name":"zbjjy_q"},{"mesh":7,"translation":[0.0,0.0,0.0],"rotation":[0.0,0.0,0.7071068,0.7071067],"scale":[0.31171003,1.0,1.0],"name":"dsqy_q"},{"translation":[0.0,0.0,0.0],"rotation":[0.0,0.0,0.0,1.0],"scale":[1.0,1.0,1.0],"name":"Default light"}],"meshes":[{"primitives":[{"attributes":{"POSITION":1,"NORMAL":2,"TEXCOORD_0":3},"indices":0,"mode":4,"material":0}],"name":"ylf_q"},{"primitives":[{"attributes":{"POSITION":5,"NORMAL":6,"TEXCOORD_0":7},"indices":4,"mode":4,"material":0}],"name":"lr_q"},{"primitives":[{"attributes":{"POSITION":9,"NORMAL":10,"TEXCOORD_0":11},"indices":8,"mode":4,"material":0}],"name":"zhy_q"},{"primitives":[{"attributes":{"POSITION":13,"NORMAL":14,"TEXCOORD_0":15},"indices":12,"mode":4,"material":0}],"name":"ztsdgc_q"},{"primitives":[{"attributes":{"POSITION":17,"NORMAL":18,"TEXCOORD_0":19},"indices":16,"mode":4,"material":0}],"name":"sbyzx_q"},{"primitives":[{"attributes":{"POSITION":21,"NORMAL":22,"TEXCOORD_0":23},"indices":20,"mode":4,"material":0}],"name":"xx_q"},{"primitives":[{"attributes":{"POSITION":25,"NORMAL":26,"TEXCOORD_0":27},"indices":24,"mode":4,"material":0}],"name":"zbjjy_q"},{"primitives":[{"attributes":{"POSITION":29,"NORMAL":30,"TEXCOORD_0":31},"indices":28,"mode":4,"material":0}],"name":"dsqy_q"}],"accessors":[{"bufferView":0,"componentType":5123,"count":24,"type":"SCALAR","name":"accessorIndices"},{"bufferView":1,"componentType":5126,"count":24,"max":[-0.9844868,89.1847153,43.9082565],"min":[-6.75339127,73.02358,18.5286026],"type":"VEC3","name":"accessorPositions"},{"bufferView":1,"byteOffset":288,"componentType":5126,"count":24,"type":"VEC3","name":"accessorNormals"},{"bufferView":2,"componentType":5126,"count":24,"type":"VEC2","name":"accessorUVs"},{"bufferView":0,"byteOffset":48,"componentType":5123,"count":36,"type":"SCALAR","name":"accessorIndices"},{"bufferView":1,"byteOffset":576,"componentType":5126,"count":36,"max":[-0.984484434,88.5989,63.25557],"min":[-6.75339031,72.5869,44.67099],"type":"VEC3","name":"accessorPositions"},{"bufferView":1,"byteOffset":1008,"componentType":5126,"count":36,"type":"VEC3","name":"accessorNormals"},{"bufferView":2,"byteOffset":192,"componentType":5126,"count":36,"type":"VEC2","name":"accessorUVs"},{"bufferView":0,"byteOffset":120,"componentType":5123,"count":30,"type":"SCALAR","name":"accessorIndices"},{"bufferView":1,"byteOffset":1440,"componentType":5126,"count":30,"max":[-0.984476268,104.347084,77.40098],"min":[-6.753384,80.5127,58.8716278],"type":"VEC3","name":"accessorPositions"},{"bufferView":1,"byteOffset":1800,"componentType":5126,"count":30,"type":"VEC3","name":"accessorNormals"},{"bufferView":2,"byteOffset":480,"componentType":5126,"count":30,"type":"VEC2","name":"accessorUVs"},{"bufferView":0,"byteOffset":180,"componentType":5123,"count":36,"type":"SCALAR","name":"accessorIndices"},{"bufferView":1,"byteOffset":2160,"componentType":5126,"count":36,"max":[-0.9844934,70.5093842,28.1215363],"min":[-6.753402,41.55302,1.4629364],"type":"VEC3","name":"accessorPositions"},{"bufferView":1,"byteOffset":2592,"componentType":5126,"count":36,"type":"VEC3","name":"accessorNormals"},{"bufferView":2,"byteOffset":720,"componentType":5126,"count":36,"type":"VEC2","name":"accessorUVs"},{"bufferView":0,"byteOffset":252,"componentType":5123,"count":36,"type":"SCALAR","name":"accessorIndices"},{"bufferView":1,"byteOffset":3024,"componentType":5126,"count":36,"max":[-0.984536767,-8.60388,-7.7658844],"min":[-6.753445,-41.7745819,-25.7038956],"type":"VEC3","name":"accessorPositions"},{"bufferView":1,"byteOffset":3456,"componentType":5126,"count":36,"type":"VEC3","name":"accessorNormals"},{"bufferView":2,"byteOffset":1008,"componentType":5126,"count":36,"type":"VEC2","name":"accessorUVs"},{"bufferView":0,"byteOffset":324,"componentType":5123,"count":42,"type":"SCALAR","name":"accessorIndices"},{"bufferView":1,"byteOffset":3888,"componentType":5126,"count":42,"max":[-0.984570563,-77.6396942,32.0260162],"min":[-6.75348234,-114.989136,-16.0526352],"type":"VEC3","name":"accessorPositions"},{"bufferView":1,"byteOffset":4392,"componentType":5126,"count":42,"type":"VEC3","name":"accessorNormals"},{"bufferView":2,"byteOffset":1296,"componentType":5126,"count":42,"type":"VEC2","name":"accessorUVs"},{"bufferView":0,"byteOffset":408,"componentType":5123,"count":66,"type":"SCALAR","name":"accessorIndices"},{"bufferView":1,"byteOffset":4896,"componentType":5126,"count":66,"max":[-0.9844651,130.669128,86.9842758],"min":[-6.753369,101.351952,8.606979],"type":"VEC3","name":"accessorPositions"},{"bufferView":1,"byteOffset":5688,"componentType":5126,"count":66,"type":"VEC3","name":"accessorNormals"},{"bufferView":2,"byteOffset":1632,"componentType":5126,"count":66,"type":"VEC2","name":"accessorUVs"},{"bufferView":0,"byteOffset":540,"componentType":5123,"count":66,"type":"SCALAR","name":"accessorIndices"},{"bufferView":1,"byteOffset":6480,"componentType":5126,"count":66,"max":[-0.9844824,105.23719,60.468998],"min":[-6.75338745,71.54325,-17.3215866],"type":"VEC3","name":"accessorPositions"},{"bufferView":1,"byteOffset":7272,"componentType":5126,"count":66,"type":"VEC3","name":"accessorNormals"},{"bufferView":2,"byteOffset":2160,"componentType":5126,"count":66,"type":"VEC2","name":"accessorUVs"}],"bufferViews":[{"buffer":0,"byteLength":672,"name":"bufferViewScalar"},{"buffer":0,"byteOffset":672,"byteLength":8064,"byteStride":12,"name":"bufferViewFloatVec3"},{"buffer":0,"byteOffset":8736,"byteLength":2688,"byteStride":8,"name":"bufferViewFloatVec2"}],"buffers":[{"uri":"qy.bin","byteLength":11424}],"materials":[{"pbrMetallicRoughness":{"baseColorFactor":[0.5,0.5,0.5,1.0],"baseColorTexture":{"index":0,"texCoord":0},"metallicFactor":0.0,"roughnessFactor":0.450053632},"emissiveFactor":[0.0,0.0,0.0],"alphaMode":"BLEND","doubleSided":true,"name":"Material #69251"}],"textures":[{"sampler":0,"source":0,"name":"q1.png"}],"images":[{"uri":"q1.png"}],"samplers":[{"magFilter":9729,"minFilter":9987,"wrapS":10497,"wrapT":10497}]}