{"asset":{"version":"2.0","generator":"babylon.js glTF exporter for 3ds max 2019 v1.4.2"},"scene":0,"scenes":[{"nodes":[0,1,2,3,4,5,6,7,8,9,10,11],"extensions":{}}],"nodes":[{"mesh":0,"translation":[0.0,0.0,0.0],"rotation":[0.0,0.0,0.0,1.0],"scale":[1.0,1.0,1.0],"name":"F001-E001-Ding"},{"mesh":1,"translation":[0.0,0.0,0.0],"rotation":[0.0,0.0,0.0,1.0],"scale":[1.0,1.0,1.0],"name":"F001-E001-F001"},{"mesh":2,"translation":[0.0,0.0,0.0],"rotation":[0.0,0.0,0.0,1.0],"scale":[1.0,1.0,1.0],"name":"F001-E001-F002"},{"mesh":3,"translation":[0.0,0.0,0.0],"rotation":[0.0,0.0,0.0,1.0],"scale":[1.0,1.0,1.0],"name":"F001-E001-F003"},{"mesh":4,"translation":[0.0,0.0,0.0],"rotation":[0.0,0.0,0.0,1.0],"scale":[1.0,1.0,1.0],"name":"F001-E001-F004"},{"mesh":5,"translation":[0.0,0.0,0.0],"rotation":[0.0,0.0,0.0,1.0],"scale":[1.0,1.0,1.0],"name":"F001-E001-F005"},{"mesh":6,"translation":[0.0,0.0,0.0],"rotation":[0.0,0.0,0.0,1.0],"scale":[1.0,1.0,1.0],"name":"F001-E001-F006"},{"mesh":7,"translation":[0.0,0.0,0.0],"rotation":[0.0,0.0,0.0,1.0],"scale":[1.0,1.0,1.0],"name":"F001-E001-F007"},{"mesh":8,"translation":[0.0,0.0,0.0],"rotation":[0.0,0.0,0.0,1.0],"scale":[1.0,1.0,1.0],"name":"F001-E001-F008"},{"mesh":9,"translation":[0.0,0.0,0.0],"rotation":[0.0,0.0,0.0,1.0],"scale":[1.0,1.0,1.0],"name":"F001-E001-F009"},{"mesh":10,"translation":[0.0,0.0,0.0],"rotation":[0.0,0.0,0.0,1.0],"scale":[1.0,1.0,1.0],"name":"F001-E001-F010"},{"translation":[0.0,0.0,0.0],"rotation":[0.0,0.0,0.0,1.0],"scale":[1.0,1.0,1.0],"name":"Default light"}],"meshes":[{"primitives":[{"attributes":{"POSITION":1,"NORMAL":2,"TEXCOORD_0":3,"TEXCOORD_1":4},"indices":0,"mode":4,"material":0},{"attributes":{"POSITION":6,"NORMAL":7,"TEXCOORD_0":8,"TEXCOORD_1":9},"indices":5,"mode":4,"material":1}],"name":"F001-E001-Ding"},{"primitives":[{"attributes":{"POSITION":11,"NORMAL":12,"TEXCOORD_0":13,"TEXCOORD_1":14},"indices":10,"mode":4,"material":0},{"attributes":{"POSITION":16,"NORMAL":17,"TEXCOORD_0":18,"TEXCOORD_1":19},"indices":15,"mode":4,"material":2}],"name":"F001-E001-F001"},{"primitives":[{"attributes":{"POSITION":21,"NORMAL":22,"TEXCOORD_0":23,"TEXCOORD_1":24},"indices":20,"mode":4,"material":0},{"attributes":{"POSITION":26,"NORMAL":27,"TEXCOORD_0":28,"TEXCOORD_1":29},"indices":25,"mode":4,"material":2}],"name":"F001-E001-F002"},{"primitives":[{"attributes":{"POSITION":31,"NORMAL":32,"TEXCOORD_0":33,"TEXCOORD_1":34},"indices":30,"mode":4,"material":0},{"attributes":{"POSITION":36,"NORMAL":37,"TEXCOORD_0":38,"TEXCOORD_1":39},"indices":35,"mode":4,"material":2}],"name":"F001-E001-F003"},{"primitives":[{"attributes":{"POSITION":41,"NORMAL":42,"TEXCOORD_0":43,"TEXCOORD_1":44},"indices":40,"mode":4,"material":0},{"attributes":{"POSITION":46,"NORMAL":47,"TEXCOORD_0":48,"TEXCOORD_1":49},"indices":45,"mode":4,"material":2}],"name":"F001-E001-F004"},{"primitives":[{"attributes":{"POSITION":51,"NORMAL":52,"TEXCOORD_0":53,"TEXCOORD_1":54},"indices":50,"mode":4,"material":0},{"attributes":{"POSITION":56,"NORMAL":57,"TEXCOORD_0":58,"TEXCOORD_1":59},"indices":55,"mode":4,"material":2}],"name":"F001-E001-F005"},{"primitives":[{"attributes":{"POSITION":61,"NORMAL":62,"TEXCOORD_0":63,"TEXCOORD_1":64},"indices":60,"mode":4,"material":0},{"attributes":{"POSITION":66,"NORMAL":67,"TEXCOORD_0":68,"TEXCOORD_1":69},"indices":65,"mode":4,"material":2}],"name":"F001-E001-F006"},{"primitives":[{"attributes":{"POSITION":71,"NORMAL":72,"TEXCOORD_0":73,"TEXCOORD_1":74},"indices":70,"mode":4,"material":0},{"attributes":{"POSITION":76,"NORMAL":77,"TEXCOORD_0":78,"TEXCOORD_1":79},"indices":75,"mode":4,"material":2}],"name":"F001-E001-F007"},{"primitives":[{"attributes":{"POSITION":81,"NORMAL":82,"TEXCOORD_0":83,"TEXCOORD_1":84},"indices":80,"mode":4,"material":0},{"attributes":{"POSITION":86,"NORMAL":87,"TEXCOORD_0":88,"TEXCOORD_1":89},"indices":85,"mode":4,"material":2}],"name":"F001-E001-F008"},{"primitives":[{"attributes":{"POSITION":91,"NORMAL":92,"TEXCOORD_0":93,"TEXCOORD_1":94},"indices":90,"mode":4,"material":0},{"attributes":{"POSITION":96,"NORMAL":97,"TEXCOORD_0":98,"TEXCOORD_1":99},"indices":95,"mode":4,"material":2}],"name":"F001-E001-F009"},{"primitives":[{"attributes":{"POSITION":101,"NORMAL":102,"TEXCOORD_0":103,"TEXCOORD_1":104},"indices":100,"mode":4,"material":0},{"attributes":{"POSITION":106,"NORMAL":107,"TEXCOORD_0":108,"TEXCOORD_1":109},"indices":105,"mode":4,"material":2}],"name":"F001-E001-F010"}],"accessors":[{"bufferView":0,"componentType":5123,"count":924,"type":"SCALAR","name":"accessorIndices"},{"bufferView":1,"componentType":5126,"count":924,"max":[-107.484047,2.626968,55.81729],"min":[-113.349327,1.77785778,53.5460052],"type":"VEC3","name":"accessorPositions"},{"bufferView":1,"byteOffset":11088,"componentType":5126,"count":924,"type":"VEC3","name":"accessorNormals"},{"bufferView":2,"componentType":5126,"count":924,"type":"VEC2","name":"accessorUVs"},{"bufferView":2,"byteOffset":7392,"componentType":5126,"count":924,"type":"VEC2","name":"accessorUV2s"},{"bufferView":0,"byteOffset":1848,"componentType":5123,"count":18,"type":"SCALAR","name":"accessorIndices"},{"bufferView":1,"byteOffset":22176,"componentType":5126,"count":18,"max":[-107.71962,2.3606286,55.68492],"min":[-113.315224,2.05811787,53.6775475],"type":"VEC3","name":"accessorPositions"},{"bufferView":1,"byteOffset":22392,"componentType":5126,"count":18,"type":"VEC3","name":"accessorNormals"},{"bufferView":2,"byteOffset":14784,"componentType":5126,"count":18,"type":"VEC2","name":"accessorUVs"},{"bufferView":2,"byteOffset":14928,"componentType":5126,"count":18,"type":"VEC2","name":"accessorUV2s"},{"bufferView":0,"byteOffset":1884,"componentType":5123,"count":252,"type":"SCALAR","name":"accessorIndices"},{"bufferView":1,"byteOffset":22608,"componentType":5126,"count":252,"max":[-107.484,-1.78460181,55.716217],"min":[-113.504333,-2.204872,53.64708],"type":"VEC3","name":"accessorPositions"},{"bufferView":1,"byteOffset":25632,"componentType":5126,"count":252,"type":"VEC3","name":"accessorNormals"},{"bufferView":2,"byteOffset":15072,"componentType":5126,"count":252,"type":"VEC2","name":"accessorUVs"},{"bufferView":2,"byteOffset":17088,"componentType":5126,"count":252,"type":"VEC2","name":"accessorUV2s"},{"bufferView":0,"byteOffset":2388,"componentType":5123,"count":63,"type":"SCALAR","name":"accessorIndices"},{"bufferView":1,"byteOffset":28656,"componentType":5126,"count":63,"max":[-107.684509,-2.20487165,55.716217],"min":[-113.348572,-2.204872,53.64708],"type":"VEC3","name":"accessorPositions"},{"bufferView":1,"byteOffset":29412,"componentType":5126,"count":63,"type":"VEC3","name":"accessorNormals"},{"bufferView":2,"byteOffset":19104,"componentType":5126,"count":63,"type":"VEC2","name":"accessorUVs"},{"bufferView":2,"byteOffset":19608,"componentType":5126,"count":63,"type":"VEC2","name":"accessorUV2s"},{"bufferView":0,"byteOffset":2516,"componentType":5123,"count":222,"type":"SCALAR","name":"accessorIndices"},{"bufferView":1,"byteOffset":30168,"componentType":5126,"count":222,"max":[-107.483971,-1.4298116,55.716217],"min":[-113.348579,-1.79057658,53.64708],"type":"VEC3","name":"accessorPositions"},{"bufferView":1,"byteOffset":32832,"componentType":5126,"count":222,"type":"VEC3","name":"accessorNormals"},{"bufferView":2,"byteOffset":20112,"componentType":5126,"count":222,"type":"VEC2","name":"accessorUVs"},{"bufferView":2,"byteOffset":21888,"componentType":5126,"count":222,"type":"VEC2","name":"accessorUV2s"},{"bufferView":0,"byteOffset":2960,"componentType":5123,"count":63,"type":"SCALAR","name":"accessorIndices"},{"bufferView":1,"byteOffset":35496,"componentType":5126,"count":63,"max":[-107.6845,-1.79021466,55.716217],"min":[-113.348564,-1.79021478,53.64708],"type":"VEC3","name":"accessorPositions"},{"bufferView":1,"byteOffset":36252,"componentType":5126,"count":63,"type":"VEC3","name":"accessorNormals"},{"bufferView":2,"byteOffset":23664,"componentType":5126,"count":63,"type":"VEC2","name":"accessorUVs"},{"bufferView":2,"byteOffset":24168,"componentType":5126,"count":63,"type":"VEC2","name":"accessorUV2s"},{"bufferView":0,"byteOffset":3088,"componentType":5123,"count":570,"type":"SCALAR","name":"accessorIndices"},{"bufferView":1,"byteOffset":37008,"componentType":5126,"count":570,"max":[-107.484,-0.976381063,55.99649],"min":[-113.504341,-1.43048871,53.366806],"type":"VEC3","name":"accessorPositions"},{"bufferView":1,"byteOffset":43848,"componentType":5126,"count":570,"type":"VEC3","name":"accessorNormals"},{"bufferView":2,"byteOffset":24672,"componentType":5126,"count":570,"type":"VEC2","name":"accessorUVs"},{"bufferView":2,"byteOffset":29232,"componentType":5126,"count":570,"type":"VEC2","name":"accessorUV2s"},{"bufferView":0,"byteOffset":4228,"componentType":5123,"count":63,"type":"SCALAR","name":"accessorIndices"},{"bufferView":1,"byteOffset":50688,"componentType":5126,"count":63,"max":[-107.684509,-1.43003833,55.716217],"min":[-113.348572,-1.43003845,53.64708],"type":"VEC3","name":"accessorPositions"},{"bufferView":1,"byteOffset":51444,"componentType":5126,"count":63,"type":"VEC3","name":"accessorNormals"},{"bufferView":2,"byteOffset":33792,"componentType":5126,"count":63,"type":"VEC2","name":"accessorUVs"},{"bufferView":2,"byteOffset":34296,"componentType":5126,"count":63,"type":"VEC2","name":"accessorUV2s"},{"bufferView":0,"byteOffset":4356,"componentType":5123,"count":804,"type":"SCALAR","name":"accessorIndices"},{"bufferView":1,"byteOffset":52200,"componentType":5126,"count":804,"max":[-107.484,-0.551552057,55.99649],"min":[-113.504341,-1.04227257,53.366806],"type":"VEC3","name":"accessorPositions"},{"bufferView":1,"byteOffset":61848,"componentType":5126,"count":804,"type":"VEC3","name":"accessorNormals"},{"bufferView":2,"byteOffset":34800,"componentType":5126,"count":804,"type":"VEC2","name":"accessorUVs"},{"bufferView":2,"byteOffset":41232,"componentType":5126,"count":804,"type":"VEC2","name":"accessorUV2s"},{"bufferView":0,"byteOffset":5964,"componentType":5123,"count":63,"type":"SCALAR","name":"accessorIndices"},{"bufferView":1,"byteOffset":71496,"componentType":5126,"count":63,"max":[-107.684509,-0.9766189,55.716217],"min":[-113.348572,-0.976619,53.64708],"type":"VEC3","name":"accessorPositions"},{"bufferView":1,"byteOffset":72252,"componentType":5126,"count":63,"type":"VEC3","name":"accessorNormals"},{"bufferView":2,"byteOffset":47664,"componentType":5126,"count":63,"type":"VEC2","name":"accessorUVs"},{"bufferView":2,"byteOffset":48168,"componentType":5126,"count":63,"type":"VEC2","name":"accessorUV2s"},{"bufferView":0,"byteOffset":6092,"componentType":5123,"count":570,"type":"SCALAR","name":"accessorIndices"},{"bufferView":1,"byteOffset":73008,"componentType":5126,"count":570,"max":[-107.484,-0.126721382,55.99649],"min":[-113.504341,-0.572461367,53.366806],"type":"VEC3","name":"accessorPositions"},{"bufferView":1,"byteOffset":79848,"componentType":5126,"count":570,"type":"VEC3","name":"accessorNormals"},{"bufferView":2,"byteOffset":48672,"componentType":5126,"count":570,"type":"VEC2","name":"accessorUVs"},{"bufferView":2,"byteOffset":53232,"componentType":5126,"count":570,"type":"VEC2","name":"accessorUV2s"},{"bufferView":0,"byteOffset":7232,"componentType":5123,"count":63,"type":"SCALAR","name":"accessorIndices"},{"bufferView":1,"byteOffset":86688,"componentType":5126,"count":63,"max":[-107.684509,-0.551551342,55.716217],"min":[-113.348572,-0.5515516,53.64708],"type":"VEC3","name":"accessorPositions"},{"bufferView":1,"byteOffset":87444,"componentType":5126,"count":63,"type":"VEC3","name":"accessorNormals"},{"bufferView":2,"byteOffset":57792,"componentType":5126,"count":63,"type":"VEC2","name":"accessorUVs"},{"bufferView":2,"byteOffset":58296,"componentType":5126,"count":63,"type":"VEC2","name":"accessorUV2s"},{"bufferView":0,"byteOffset":7360,"componentType":5123,"count":570,"type":"SCALAR","name":"accessorIndices"},{"bufferView":1,"byteOffset":88200,"componentType":5126,"count":570,"max":[-107.484,0.298108816,55.99649],"min":[-113.504341,-0.1434474,53.366806],"type":"VEC3","name":"accessorPositions"},{"bufferView":1,"byteOffset":95040,"componentType":5126,"count":570,"type":"VEC3","name":"accessorNormals"},{"bufferView":2,"byteOffset":58800,"componentType":5126,"count":570,"type":"VEC2","name":"accessorUVs"},{"bufferView":2,"byteOffset":63360,"componentType":5126,"count":570,"type":"VEC2","name":"accessorUV2s"},{"bufferView":0,"byteOffset":8500,"componentType":5123,"count":63,"type":"SCALAR","name":"accessorIndices"},{"bufferView":1,"byteOffset":101880,"componentType":5126,"count":63,"max":[-107.684509,-0.126871109,55.716217],"min":[-113.348572,-0.126871347,53.64708],"type":"VEC3","name":"accessorPositions"},{"bufferView":1,"byteOffset":102636,"componentType":5126,"count":63,"type":"VEC3","name":"accessorNormals"},{"bufferView":2,"byteOffset":67920,"componentType":5126,"count":63,"type":"VEC2","name":"accessorUVs"},{"bufferView":2,"byteOffset":68424,"componentType":5126,"count":63,"type":"VEC2","name":"accessorUV2s"},{"bufferView":0,"byteOffset":8628,"componentType":5123,"count":570,"type":"SCALAR","name":"accessorIndices"},{"bufferView":1,"byteOffset":103392,"componentType":5126,"count":570,"max":[-107.484,0.722938538,55.99649],"min":[-113.504341,0.2855661,53.366806],"type":"VEC3","name":"accessorPositions"},{"bufferView":1,"byteOffset":110232,"componentType":5126,"count":570,"type":"VEC3","name":"accessorNormals"},{"bufferView":2,"byteOffset":68928,"componentType":5126,"count":570,"type":"VEC2","name":"accessorUVs"},{"bufferView":2,"byteOffset":73488,"componentType":5126,"count":570,"type":"VEC2","name":"accessorUV2s"},{"bufferView":0,"byteOffset":9768,"componentType":5123,"count":63,"type":"SCALAR","name":"accessorIndices"},{"bufferView":1,"byteOffset":117072,"componentType":5126,"count":63,"max":[-107.684509,0.297991753,55.716217],"min":[-113.348572,0.297991753,53.64708],"type":"VEC3","name":"accessorPositions"},{"bufferView":1,"byteOffset":117828,"componentType":5126,"count":63,"type":"VEC3","name":"accessorNormals"},{"bufferView":2,"byteOffset":78048,"componentType":5126,"count":63,"type":"VEC2","name":"accessorUVs"},{"bufferView":2,"byteOffset":78552,"componentType":5126,"count":63,"type":"VEC2","name":"accessorUV2s"},{"bufferView":0,"byteOffset":9896,"componentType":5123,"count":570,"type":"SCALAR","name":"accessorIndices"},{"bufferView":1,"byteOffset":118584,"componentType":5126,"count":570,"max":[-107.484,1.1477685,55.99648],"min":[-113.504341,0.7145798,53.36679],"type":"VEC3","name":"accessorPositions"},{"bufferView":1,"byteOffset":125424,"componentType":5126,"count":570,"type":"VEC3","name":"accessorNormals"},{"bufferView":2,"byteOffset":79056,"componentType":5126,"count":570,"type":"VEC2","name":"accessorUVs"},{"bufferView":2,"byteOffset":83616,"componentType":5126,"count":570,"type":"VEC2","name":"accessorUV2s"},{"bufferView":0,"byteOffset":11036,"componentType":5123,"count":63,"type":"SCALAR","name":"accessorIndices"},{"bufferView":1,"byteOffset":132264,"componentType":5126,"count":63,"max":[-107.684509,0.7228551,55.71621],"min":[-113.348572,0.722854853,53.64707],"type":"VEC3","name":"accessorPositions"},{"bufferView":1,"byteOffset":133020,"componentType":5126,"count":63,"type":"VEC3","name":"accessorNormals"},{"bufferView":2,"byteOffset":88176,"componentType":5126,"count":63,"type":"VEC2","name":"accessorUVs"},{"bufferView":2,"byteOffset":88680,"componentType":5126,"count":63,"type":"VEC2","name":"accessorUV2s"},{"bufferView":0,"byteOffset":11164,"componentType":5123,"count":570,"type":"SCALAR","name":"accessorIndices"},{"bufferView":1,"byteOffset":133776,"componentType":5126,"count":570,"max":[-107.484,1.57260656,55.99649],"min":[-113.504341,1.14359283,53.366806],"type":"VEC3","name":"accessorPositions"},{"bufferView":1,"byteOffset":140616,"componentType":5126,"count":570,"type":"VEC3","name":"accessorNormals"},{"bufferView":2,"byteOffset":89184,"componentType":5126,"count":570,"type":"VEC2","name":"accessorUVs"},{"bufferView":2,"byteOffset":93744,"componentType":5126,"count":570,"type":"VEC2","name":"accessorUV2s"},{"bufferView":0,"byteOffset":12304,"componentType":5123,"count":63,"type":"SCALAR","name":"accessorIndices"},{"bufferView":1,"byteOffset":147456,"componentType":5126,"count":63,"max":[-107.684509,1.14771748,55.716217],"min":[-113.348572,1.14771724,53.64708],"type":"VEC3","name":"accessorPositions"},{"bufferView":1,"byteOffset":148212,"componentType":5126,"count":63,"type":"VEC3","name":"accessorNormals"},{"bufferView":2,"byteOffset":98304,"componentType":5126,"count":63,"type":"VEC2","name":"accessorUVs"},{"bufferView":2,"byteOffset":98808,"componentType":5126,"count":63,"type":"VEC2","name":"accessorUV2s"},{"bufferView":0,"byteOffset":12432,"componentType":5123,"count":618,"type":"SCALAR","name":"accessorIndices"},{"bufferView":1,"byteOffset":148968,"componentType":5126,"count":618,"max":[-107.484,2.05826139,55.96837],"min":[-113.504341,1.57235241,53.394928],"type":"VEC3","name":"accessorPositions"},{"bufferView":1,"byteOffset":156384,"componentType":5126,"count":618,"type":"VEC3","name":"accessorNormals"},{"bufferView":2,"byteOffset":99312,"componentType":5126,"count":618,"type":"VEC2","name":"accessorUVs"},{"bufferView":2,"byteOffset":104256,"componentType":5126,"count":618,"type":"VEC2","name":"accessorUV2s"},{"bufferView":0,"byteOffset":13668,"componentType":5123,"count":63,"type":"SCALAR","name":"accessorIndices"},{"bufferView":1,"byteOffset":163800,"componentType":5126,"count":63,"max":[-107.684509,1.57258034,55.716217],"min":[-113.348572,1.57258034,53.64708],"type":"VEC3","name":"accessorPositions"},{"bufferView":1,"byteOffset":164556,"componentType":5126,"count":63,"type":"VEC3","name":"accessorNormals"},{"bufferView":2,"byteOffset":109200,"componentType":5126,"count":63,"type":"VEC2","name":"accessorUVs"},{"bufferView":2,"byteOffset":109704,"componentType":5126,"count":63,"type":"VEC2","name":"accessorUV2s"}],"bufferViews":[{"buffer":0,"byteLength":13796,"name":"bufferViewScalar"},{"buffer":0,"byteOffset":13796,"byteLength":165312,"byteStride":12,"name":"bufferViewFloatVec3"},{"buffer":0,"byteOffset":179108,"byteLength":110208,"byteStride":8,"name":"bufferViewFloatVec2"}],"buffers":[{"uri":"F001-E001.bin","byteLength":289316}],"materials":[{"pbrMetallicRoughness":{"baseColorFactor":[0.5,0.5,0.5,1.0],"baseColorTexture":{"index":0,"texCoord":0},"metallicFactor":0.0,"roughnessFactor":0.450053632},"emissiveFactor":[0.0,0.0,0.0],"alphaMode":"BLEND","name":"F001-E001-F001"},{"pbrMetallicRoughness":{"baseColorFactor":[0.5,0.5,0.5,1.0],"baseColorTexture":{"index":1,"texCoord":0},"metallicFactor":0.0,"roughnessFactor":0.450053632},"emissiveFactor":[0.0,0.0,0.0],"alphaMode":"BLEND","name":"Material #695"},{"pbrMetallicRoughness":{"baseColorFactor":[0.5,0.5,0.5,1.0],"baseColorTexture":{"index":2,"texCoord":0},"metallicFactor":0.0,"roughnessFactor":0.450053632},"emissiveFactor":[0.0,0.0,0.0],"alphaMode":"BLEND","name":"Material #69063"}],"textures":[{"sampler":0,"source":0,"name":"F001-E001-F001.jpg"},{"sampler":0,"source":1,"name":"5V54B06P.jpg"},{"sampler":0,"source":2,"name":"DM0YLF03.jpg"}],"images":[{"uri":"F001-E001-F001.jpg"},{"uri":"5V54B06P.jpg"},{"uri":"DM0YLF03.jpg"}],"samplers":[{"magFilter":9729,"minFilter":9987,"wrapS":10497,"wrapT":10497}]}