{"asset":{"version":"2.0","generator":"babylon.js glTF exporter for 3ds max 2019 v1.4.2"},"scene":0,"scenes":[{"nodes":[0,1,2,3,4,5,6,7,8,9,10,11,12],"extensions":{}}],"nodes":[{"mesh":0,"translation":[0.0,0.0,0.0],"rotation":[0.0,0.0,0.0,1.0],"scale":[1.0,1.0,1.0],"name":"F001-A001-Ding"},{"mesh":1,"translation":[0.0,0.0,0.0],"rotation":[0.0,0.0,0.0,1.0],"scale":[1.0,1.0,1.0],"name":"F001-A001-F001"},{"mesh":2,"translation":[0.0,0.0,0.0],"rotation":[0.0,0.0,0.0,1.0],"scale":[1.0,1.0,1.0],"name":"F001-A001-F002"},{"mesh":3,"translation":[0.0,0.0,0.0],"rotation":[0.0,0.0,0.0,1.0],"scale":[1.0,1.0,1.0],"name":"F001-A001-F003"},{"mesh":4,"translation":[0.0,0.0,0.0],"rotation":[0.0,0.0,0.0,1.0],"scale":[1.0,1.0,1.0],"name":"F001-A001-F004"},{"mesh":5,"translation":[0.0,0.0,0.0],"rotation":[0.0,0.0,0.0,1.0],"scale":[1.0,1.0,1.0],"name":"F001-A001-F005"},{"mesh":6,"translation":[0.0,0.0,0.0],"rotation":[0.0,0.0,0.0,1.0],"scale":[1.0,1.0,1.0],"name":"F001-A001-F006"},{"mesh":7,"translation":[0.0,0.0,0.0],"rotation":[0.0,0.0,0.0,1.0],"scale":[1.0,1.0,1.0],"name":"F001-A001-F007"},{"mesh":8,"translation":[0.0,0.0,0.0],"rotation":[0.0,0.0,0.0,1.0],"scale":[1.0,1.0,1.0],"name":"F001-A001-F008"},{"mesh":9,"translation":[0.0,0.0,0.0],"rotation":[0.0,0.0,0.0,1.0],"scale":[1.0,1.0,1.0],"name":"F001-A001-F009"},{"mesh":10,"translation":[0.0,0.0,0.0],"rotation":[0.0,0.0,0.0,1.0],"scale":[1.0,1.0,1.0],"name":"F001-A001-F010"},{"mesh":11,"translation":[0.0,0.0,0.0],"rotation":[0.0,0.0,0.0,1.0],"scale":[1.0,1.0,1.0],"name":"F001-A001-F011"},{"translation":[0.0,0.0,0.0],"rotation":[0.0,0.0,0.0,1.0],"scale":[1.0,1.0,1.0],"name":"Default light"}],"meshes":[{"primitives":[{"attributes":{"POSITION":1,"NORMAL":2,"TEXCOORD_0":3,"TEXCOORD_1":4},"indices":0,"mode":4,"material":0},{"attributes":{"POSITION":6,"NORMAL":7,"TEXCOORD_0":8,"TEXCOORD_1":9},"indices":5,"mode":4,"material":1}],"name":"F001-A001-Ding"},{"primitives":[{"attributes":{"POSITION":11,"NORMAL":12,"TEXCOORD_0":13,"TEXCOORD_1":14},"indices":10,"mode":4,"material":0},{"attributes":{"POSITION":16,"NORMAL":17,"TEXCOORD_0":18,"TEXCOORD_1":19},"indices":15,"mode":4,"material":2}],"name":"F001-A001-F001"},{"primitives":[{"attributes":{"POSITION":21,"NORMAL":22,"TEXCOORD_0":23,"TEXCOORD_1":24},"indices":20,"mode":4,"material":0},{"attributes":{"POSITION":26,"NORMAL":27,"TEXCOORD_0":28,"TEXCOORD_1":29},"indices":25,"mode":4,"material":2}],"name":"F001-A001-F002"},{"primitives":[{"attributes":{"POSITION":31,"NORMAL":32,"TEXCOORD_0":33,"TEXCOORD_1":34},"indices":30,"mode":4,"material":0},{"attributes":{"POSITION":36,"NORMAL":37,"TEXCOORD_0":38,"TEXCOORD_1":39},"indices":35,"mode":4,"material":2}],"name":"F001-A001-F003"},{"primitives":[{"attributes":{"POSITION":41,"NORMAL":42,"TEXCOORD_0":43,"TEXCOORD_1":44},"indices":40,"mode":4,"material":0},{"attributes":{"POSITION":46,"NORMAL":47,"TEXCOORD_0":48,"TEXCOORD_1":49},"indices":45,"mode":4,"material":2}],"name":"F001-A001-F004"},{"primitives":[{"attributes":{"POSITION":51,"NORMAL":52,"TEXCOORD_0":53,"TEXCOORD_1":54},"indices":50,"mode":4,"material":1}],"name":"F001-A001-F005"},{"primitives":[{"attributes":{"POSITION":56,"NORMAL":57,"TEXCOORD_0":58,"TEXCOORD_1":59},"indices":55,"mode":4,"material":0},{"attributes":{"POSITION":61,"NORMAL":62,"TEXCOORD_0":63,"TEXCOORD_1":64},"indices":60,"mode":4,"material":2}],"name":"F001-A001-F006"},{"primitives":[{"attributes":{"POSITION":66,"NORMAL":67,"TEXCOORD_0":68,"TEXCOORD_1":69},"indices":65,"mode":4,"material":0},{"attributes":{"POSITION":71,"NORMAL":72,"TEXCOORD_0":73,"TEXCOORD_1":74},"indices":70,"mode":4,"material":2}],"name":"F001-A001-F007"},{"primitives":[{"attributes":{"POSITION":76,"NORMAL":77,"TEXCOORD_0":78,"TEXCOORD_1":79},"indices":75,"mode":4,"material":0},{"attributes":{"POSITION":81,"NORMAL":82,"TEXCOORD_0":83,"TEXCOORD_1":84},"indices":80,"mode":4,"material":2}],"name":"F001-A001-F008"},{"primitives":[{"attributes":{"POSITION":86,"NORMAL":87,"TEXCOORD_0":88,"TEXCOORD_1":89},"indices":85,"mode":4,"material":0},{"attributes":{"POSITION":91,"NORMAL":92,"TEXCOORD_0":93,"TEXCOORD_1":94},"indices":90,"mode":4,"material":2}],"name":"F001-A001-F009"},{"primitives":[{"attributes":{"POSITION":96,"NORMAL":97,"TEXCOORD_0":98,"TEXCOORD_1":99},"indices":95,"mode":4,"material":0},{"attributes":{"POSITION":101,"NORMAL":102,"TEXCOORD_0":103,"TEXCOORD_1":104},"indices":100,"mode":4,"material":2}],"name":"F001-A001-F010"},{"primitives":[{"attributes":{"POSITION":106,"NORMAL":107,"TEXCOORD_0":108,"TEXCOORD_1":109},"indices":105,"mode":4,"material":0},{"attributes":{"POSITION":111,"NORMAL":112,"TEXCOORD_0":113,"TEXCOORD_1":114},"indices":110,"mode":4,"material":2}],"name":"F001-A001-F011"}],"accessors":[{"bufferView":0,"componentType":5123,"count":561,"type":"SCALAR","name":"accessorIndices"},{"bufferView":1,"componentType":5126,"count":561,"max":[-106.297089,2.80740833,74.4740753],"min":[-109.667526,2.39785767,69.20659],"type":"VEC3","name":"accessorPositions"},{"bufferView":1,"byteOffset":6732,"componentType":5126,"count":561,"type":"VEC3","name":"accessorNormals"},{"bufferView":2,"componentType":5126,"count":561,"type":"VEC2","name":"accessorUVs"},{"bufferView":2,"byteOffset":4488,"componentType":5126,"count":561,"type":"VEC2","name":"accessorUV2s"},{"bufferView":0,"byteOffset":1124,"componentType":5123,"count":63,"type":"SCALAR","name":"accessorIndices"},{"bufferView":1,"byteOffset":13464,"componentType":5126,"count":63,"max":[-106.327141,2.70410824,74.4313],"min":[-109.6256,2.39785767,69.2395],"type":"VEC3","name":"accessorPositions"},{"bufferView":1,"byteOffset":14220,"componentType":5126,"count":63,"type":"VEC3","name":"accessorNormals"},{"bufferView":2,"byteOffset":8976,"componentType":5126,"count":63,"type":"VEC2","name":"accessorUVs"},{"bufferView":2,"byteOffset":9480,"componentType":5126,"count":63,"type":"VEC2","name":"accessorUV2s"},{"bufferView":0,"byteOffset":1252,"componentType":5123,"count":513,"type":"SCALAR","name":"accessorIndices"},{"bufferView":1,"byteOffset":14976,"componentType":5126,"count":513,"max":[-105.842232,-1.60827184,76.2946854],"min":[-109.667549,-2.204892,68.9270248],"type":"VEC3","name":"accessorPositions"},{"bufferView":1,"byteOffset":21132,"componentType":5126,"count":513,"type":"VEC3","name":"accessorNormals"},{"bufferView":2,"byteOffset":9984,"componentType":5126,"count":513,"type":"VEC2","name":"accessorUVs"},{"bufferView":2,"byteOffset":14088,"componentType":5126,"count":513,"type":"VEC2","name":"accessorUV2s"},{"bufferView":0,"byteOffset":2280,"componentType":5123,"count":192,"type":"SCALAR","name":"accessorIndices"},{"bufferView":1,"byteOffset":27288,"componentType":5126,"count":192,"max":[-105.842232,-2.204892,76.2946854],"min":[-109.667549,-2.204892,68.9270554],"type":"VEC3","name":"accessorPositions"},{"bufferView":1,"byteOffset":29592,"componentType":5126,"count":192,"type":"VEC3","name":"accessorNormals"},{"bufferView":2,"byteOffset":18192,"componentType":5126,"count":192,"type":"VEC2","name":"accessorUVs"},{"bufferView":2,"byteOffset":19728,"componentType":5126,"count":192,"type":"VEC2","name":"accessorUV2s"},{"bufferView":0,"byteOffset":2664,"componentType":5123,"count":1377,"type":"SCALAR","name":"accessorIndices"},{"bufferView":1,"byteOffset":31896,"componentType":5126,"count":1377,"max":[-105.842232,-0.897292852,76.29468],"min":[-109.667549,-1.630562,68.927],"type":"VEC3","name":"accessorPositions"},{"bufferView":1,"byteOffset":48420,"componentType":5126,"count":1377,"type":"VEC3","name":"accessorNormals"},{"bufferView":2,"byteOffset":21264,"componentType":5126,"count":1377,"type":"VEC2","name":"accessorUVs"},{"bufferView":2,"byteOffset":32280,"componentType":5126,"count":1377,"type":"VEC2","name":"accessorUV2s"},{"bufferView":0,"byteOffset":5420,"componentType":5123,"count":192,"type":"SCALAR","name":"accessorIndices"},{"bufferView":1,"byteOffset":64944,"componentType":5126,"count":192,"max":[-105.842232,-1.60842288,76.29468],"min":[-109.667549,-1.60842288,68.92705],"type":"VEC3","name":"accessorPositions"},{"bufferView":1,"byteOffset":67248,"componentType":5126,"count":192,"type":"VEC3","name":"accessorNormals"},{"bufferView":2,"byteOffset":43296,"componentType":5126,"count":192,"type":"VEC2","name":"accessorUVs"},{"bufferView":2,"byteOffset":44832,"componentType":5126,"count":192,"type":"VEC2","name":"accessorUV2s"},{"bufferView":0,"byteOffset":5804,"componentType":5123,"count":450,"type":"SCALAR","name":"accessorIndices"},{"bufferView":1,"byteOffset":69552,"componentType":5126,"count":450,"max":[-105.842247,-0.5311632,76.29468],"min":[-109.667549,-0.9038688,68.92703],"type":"VEC3","name":"accessorPositions"},{"bufferView":1,"byteOffset":74952,"componentType":5126,"count":450,"type":"VEC3","name":"accessorNormals"},{"bufferView":2,"byteOffset":46368,"componentType":5126,"count":450,"type":"VEC2","name":"accessorUVs"},{"bufferView":2,"byteOffset":49968,"componentType":5126,"count":450,"type":"VEC2","name":"accessorUV2s"},{"bufferView":0,"byteOffset":6704,"componentType":5123,"count":192,"type":"SCALAR","name":"accessorIndices"},{"bufferView":1,"byteOffset":80352,"componentType":5126,"count":192,"max":[-105.842232,-0.8972931,76.29468],"min":[-109.667549,-0.8972931,68.92705],"type":"VEC3","name":"accessorPositions"},{"bufferView":1,"byteOffset":82656,"componentType":5126,"count":192,"type":"VEC3","name":"accessorNormals"},{"bufferView":2,"byteOffset":53568,"componentType":5126,"count":192,"type":"VEC2","name":"accessorUVs"},{"bufferView":2,"byteOffset":55104,"componentType":5126,"count":192,"type":"VEC2","name":"accessorUV2s"},{"bufferView":0,"byteOffset":7088,"componentType":5123,"count":156,"type":"SCALAR","name":"accessorIndices"},{"bufferView":1,"byteOffset":84960,"componentType":5126,"count":156,"max":[-106.297119,-0.16503191,74.47402],"min":[-109.667549,-0.5312898,69.20654],"type":"VEC3","name":"accessorPositions"},{"bufferView":1,"byteOffset":86832,"componentType":5126,"count":156,"type":"VEC3","name":"accessorNormals"},{"bufferView":2,"byteOffset":56640,"componentType":5126,"count":156,"type":"VEC2","name":"accessorUVs"},{"bufferView":2,"byteOffset":57888,"componentType":5126,"count":156,"type":"VEC2","name":"accessorUV2s"},{"bufferView":0,"byteOffset":7400,"componentType":5123,"count":285,"type":"SCALAR","name":"accessorIndices"},{"bufferView":1,"byteOffset":88704,"componentType":5126,"count":285,"max":[-105.842262,-0.5311618,75.29163],"min":[-109.667549,-0.542073965,68.92705],"type":"VEC3","name":"accessorPositions"},{"bufferView":1,"byteOffset":92124,"componentType":5126,"count":285,"type":"VEC3","name":"accessorNormals"},{"bufferView":2,"byteOffset":59136,"componentType":5126,"count":285,"type":"VEC2","name":"accessorUVs"},{"bufferView":2,"byteOffset":61416,"componentType":5126,"count":285,"type":"VEC2","name":"accessorUV2s"},{"bufferView":0,"byteOffset":7972,"componentType":5123,"count":1116,"type":"SCALAR","name":"accessorIndices"},{"bufferView":1,"byteOffset":95544,"componentType":5126,"count":1116,"max":[-105.842232,0.186449528,76.29467],"min":[-109.667549,-0.5527921,68.92704],"type":"VEC3","name":"accessorPositions"},{"bufferView":1,"byteOffset":108936,"componentType":5126,"count":1116,"type":"VEC3","name":"accessorNormals"},{"bufferView":2,"byteOffset":63696,"componentType":5126,"count":1116,"type":"VEC2","name":"accessorUVs"},{"bufferView":2,"byteOffset":72624,"componentType":5126,"count":1116,"type":"VEC2","name":"accessorUV2s"},{"bufferView":0,"byteOffset":10204,"componentType":5123,"count":156,"type":"SCALAR","name":"accessorIndices"},{"bufferView":1,"byteOffset":122328,"componentType":5126,"count":156,"max":[-106.2971,0.5555053,74.4740753],"min":[-109.667526,0.186113834,69.20659],"type":"VEC3","name":"accessorPositions"},{"bufferView":1,"byteOffset":124200,"componentType":5126,"count":156,"type":"VEC3","name":"accessorNormals"},{"bufferView":2,"byteOffset":81552,"componentType":5126,"count":156,"type":"VEC2","name":"accessorUVs"},{"bufferView":2,"byteOffset":82800,"componentType":5126,"count":156,"type":"VEC2","name":"accessorUV2s"},{"bufferView":0,"byteOffset":10516,"componentType":5123,"count":72,"type":"SCALAR","name":"accessorIndices"},{"bufferView":1,"byteOffset":126072,"componentType":5126,"count":72,"max":[-106.2971,0.186449766,74.4740753],"min":[-109.667526,0.186113834,69.20659],"type":"VEC3","name":"accessorPositions"},{"bufferView":1,"byteOffset":126936,"componentType":5126,"count":72,"type":"VEC3","name":"accessorNormals"},{"bufferView":2,"byteOffset":84048,"componentType":5126,"count":72,"type":"VEC2","name":"accessorUVs"},{"bufferView":2,"byteOffset":84624,"componentType":5126,"count":72,"type":"VEC2","name":"accessorUV2s"},{"bufferView":0,"byteOffset":10660,"componentType":5123,"count":156,"type":"SCALAR","name":"accessorIndices"},{"bufferView":1,"byteOffset":127800,"componentType":5126,"count":156,"max":[-106.2971,0.924562454,74.4740753],"min":[-109.667526,0.555067539,69.20659],"type":"VEC3","name":"accessorPositions"},{"bufferView":1,"byteOffset":129672,"componentType":5126,"count":156,"type":"VEC3","name":"accessorNormals"},{"bufferView":2,"byteOffset":85200,"componentType":5126,"count":156,"type":"VEC2","name":"accessorUVs"},{"bufferView":2,"byteOffset":86448,"componentType":5126,"count":156,"type":"VEC2","name":"accessorUV2s"},{"bufferView":0,"byteOffset":10972,"componentType":5123,"count":72,"type":"SCALAR","name":"accessorIndices"},{"bufferView":1,"byteOffset":131544,"componentType":5126,"count":72,"max":[-106.2971,0.5555053,74.4740753],"min":[-109.667526,0.555067539,69.20659],"type":"VEC3","name":"accessorPositions"},{"bufferView":1,"byteOffset":132408,"componentType":5126,"count":72,"type":"VEC3","name":"accessorNormals"},{"bufferView":2,"byteOffset":87696,"componentType":5126,"count":72,"type":"VEC2","name":"accessorUVs"},{"bufferView":2,"byteOffset":88272,"componentType":5126,"count":72,"type":"VEC2","name":"accessorUV2s"},{"bufferView":0,"byteOffset":11116,"componentType":5123,"count":156,"type":"SCALAR","name":"accessorIndices"},{"bufferView":1,"byteOffset":133272,"componentType":5126,"count":156,"max":[-106.2971,1.29361963,74.4740753],"min":[-109.667526,0.9240217,69.20659],"type":"VEC3","name":"accessorPositions"},{"bufferView":1,"byteOffset":135144,"componentType":5126,"count":156,"type":"VEC3","name":"accessorNormals"},{"bufferView":2,"byteOffset":88848,"componentType":5126,"count":156,"type":"VEC2","name":"accessorUVs"},{"bufferView":2,"byteOffset":90096,"componentType":5126,"count":156,"type":"VEC2","name":"accessorUV2s"},{"bufferView":0,"byteOffset":11428,"componentType":5123,"count":72,"type":"SCALAR","name":"accessorIndices"},{"bufferView":1,"byteOffset":137016,"componentType":5126,"count":72,"max":[-106.2971,0.924562454,74.4740753],"min":[-109.667526,0.9240217,69.20659],"type":"VEC3","name":"accessorPositions"},{"bufferView":1,"byteOffset":137880,"componentType":5126,"count":72,"type":"VEC3","name":"accessorNormals"},{"bufferView":2,"byteOffset":91344,"componentType":5126,"count":72,"type":"VEC2","name":"accessorUVs"},{"bufferView":2,"byteOffset":91920,"componentType":5126,"count":72,"type":"VEC2","name":"accessorUV2s"},{"bufferView":0,"byteOffset":11572,"componentType":5123,"count":156,"type":"SCALAR","name":"accessorIndices"},{"bufferView":1,"byteOffset":138744,"componentType":5126,"count":156,"max":[-106.2971,1.66267729,74.4740753],"min":[-109.667526,1.29297543,69.20659],"type":"VEC3","name":"accessorPositions"},{"bufferView":1,"byteOffset":140616,"componentType":5126,"count":156,"type":"VEC3","name":"accessorNormals"},{"bufferView":2,"byteOffset":92496,"componentType":5126,"count":156,"type":"VEC2","name":"accessorUVs"},{"bufferView":2,"byteOffset":93744,"componentType":5126,"count":156,"type":"VEC2","name":"accessorUV2s"},{"bufferView":0,"byteOffset":11884,"componentType":5123,"count":72,"type":"SCALAR","name":"accessorIndices"},{"bufferView":1,"byteOffset":142488,"componentType":5126,"count":72,"max":[-106.2971,1.29361963,74.4740753],"min":[-109.667526,1.29297543,69.20659],"type":"VEC3","name":"accessorPositions"},{"bufferView":1,"byteOffset":143352,"componentType":5126,"count":72,"type":"VEC3","name":"accessorNormals"},{"bufferView":2,"byteOffset":94992,"componentType":5126,"count":72,"type":"VEC2","name":"accessorUVs"},{"bufferView":2,"byteOffset":95568,"componentType":5126,"count":72,"type":"VEC2","name":"accessorUV2s"},{"bufferView":0,"byteOffset":12028,"componentType":5123,"count":156,"type":"SCALAR","name":"accessorIndices"},{"bufferView":1,"byteOffset":144216,"componentType":5126,"count":156,"max":[-106.2971,2.031734,74.4740753],"min":[-109.667526,1.66192913,69.20659],"type":"VEC3","name":"accessorPositions"},{"bufferView":1,"byteOffset":146088,"componentType":5126,"count":156,"type":"VEC3","name":"accessorNormals"},{"bufferView":2,"byteOffset":96144,"componentType":5126,"count":156,"type":"VEC2","name":"accessorUVs"},{"bufferView":2,"byteOffset":97392,"componentType":5126,"count":156,"type":"VEC2","name":"accessorUV2s"},{"bufferView":0,"byteOffset":12340,"componentType":5123,"count":72,"type":"SCALAR","name":"accessorIndices"},{"bufferView":1,"byteOffset":147960,"componentType":5126,"count":72,"max":[-106.2971,1.66267681,74.4740753],"min":[-109.667526,1.66192913,69.20659],"type":"VEC3","name":"accessorPositions"},{"bufferView":1,"byteOffset":148824,"componentType":5126,"count":72,"type":"VEC3","name":"accessorNormals"},{"bufferView":2,"byteOffset":98640,"componentType":5126,"count":72,"type":"VEC2","name":"accessorUVs"},{"bufferView":2,"byteOffset":99216,"componentType":5126,"count":72,"type":"VEC2","name":"accessorUV2s"},{"bufferView":0,"byteOffset":12484,"componentType":5123,"count":195,"type":"SCALAR","name":"accessorIndices"},{"bufferView":1,"byteOffset":149688,"componentType":5126,"count":195,"max":[-106.297089,2.48866844,74.4740753],"min":[-109.667526,2.03088284,69.20659],"type":"VEC3","name":"accessorPositions"},{"bufferView":1,"byteOffset":152028,"componentType":5126,"count":195,"type":"VEC3","name":"accessorNormals"},{"bufferView":2,"byteOffset":99792,"componentType":5126,"count":195,"type":"VEC2","name":"accessorUVs"},{"bufferView":2,"byteOffset":101352,"componentType":5126,"count":195,"type":"VEC2","name":"accessorUV2s"},{"bufferView":0,"byteOffset":12876,"componentType":5123,"count":75,"type":"SCALAR","name":"accessorIndices"},{"bufferView":1,"byteOffset":154368,"componentType":5126,"count":75,"max":[-106.297089,2.03173447,74.4740753],"min":[-109.667519,2.03088284,69.20659],"type":"VEC3","name":"accessorPositions"},{"bufferView":1,"byteOffset":155268,"componentType":5126,"count":75,"type":"VEC3","name":"accessorNormals"},{"bufferView":2,"byteOffset":102912,"componentType":5126,"count":75,"type":"VEC2","name":"accessorUVs"},{"bufferView":2,"byteOffset":103512,"componentType":5126,"count":75,"type":"VEC2","name":"accessorUV2s"}],"bufferViews":[{"buffer":0,"byteLength":13028,"name":"bufferViewScalar"},{"buffer":0,"byteOffset":13028,"byteLength":156168,"byteStride":12,"name":"bufferViewFloatVec3"},{"buffer":0,"byteOffset":169196,"byteLength":104112,"byteStride":8,"name":"bufferViewFloatVec2"}],"buffers":[{"uri":"F001-A001.bin","byteLength":273308}],"materials":[{"pbrMetallicRoughness":{"baseColorFactor":[0.5,0.5,0.5,1.0],"baseColorTexture":{"index":0,"texCoord":0},"metallicFactor":0.0,"roughnessFactor":0.450053632},"emissiveFactor":[0.0,0.0,0.0],"alphaMode":"BLEND","name":"F001-A001-F001"},{"pbrMetallicRoughness":{"baseColorFactor":[0.5,0.5,0.5,1.0],"baseColorTexture":{"index":1,"texCoord":0},"metallicFactor":0.0,"roughnessFactor":0.450053632},"emissiveFactor":[0.0,0.0,0.0],"alphaMode":"BLEND","name":"Material #695"},{"pbrMetallicRoughness":{"baseColorFactor":[0.5,0.5,0.5,1.0],"baseColorTexture":{"index":2,"texCoord":0},"metallicFactor":0.0,"roughnessFactor":0.450053632},"emissiveFactor":[0.0,0.0,0.0],"alphaMode":"BLEND","name":"Material #69063"}],"textures":[{"sampler":0,"source":0,"name":"F001-A001-F001.jpg"},{"sampler":0,"source":1,"name":"5V54B06P.jpg"},{"sampler":0,"source":2,"name":"DM0YLF03.jpg"}],"images":[{"uri":"F001-A001-F001.jpg"},{"uri":"5V54B06P.jpg"},{"uri":"DM0YLF03.jpg"}],"samplers":[{"magFilter":9729,"minFilter":9987,"wrapS":10497,"wrapT":10497}]}