{"asset":{"version":"2.0","generator":"babylon.js glTF exporter for 3ds max 2019 v1.4.2"},"scene":0,"scenes":[{"nodes":[0,1,2,3,4,5,6,7],"extensions":{}}],"nodes":[{"mesh":0,"translation":[-83.66145,-0.845502734,38.0781479],"rotation":[0.0,0.0,0.0,1.0],"scale":[2.0,1.0,2.0],"name":"A001-A001-Dianti03"},{"mesh":1,"translation":[-82.97528,2.953043,38.6613541],"rotation":[0.0,0.0,0.0,1.0],"scale":[2.0,1.0,2.0],"name":"A001-A001-Dianti04"},{"mesh":2,"translation":[-82.97528,1.08791161,38.35859],"rotation":[0.0,0.0,0.0,1.0],"scale":[2.0,1.0,2.0],"name":"A001-A001-Dianti05"},{"mesh":3,"translation":[-82.97528,-0.310658932,38.0781479],"rotation":[0.0,0.0,0.0,1.0],"scale":[2.0,1.0,2.0],"name":"A001-A001-Dianti06"},{"mesh":4,"translation":[-83.66145,-1.99254417,38.6613541],"rotation":[0.0,0.0,0.0,1.0],"scale":[2.0,1.0,2.0],"name":"A001-A001-Dianti01"},{"mesh":5,"translation":[2.875885,-2.73336124,-0.0469856262],"rotation":[0.0,0.0,0.0,1.0],"scale":[1.0,1.0,1.0],"name":"A001-A001-Diantizhu01"},{"mesh":6,"translation":[-83.66145,-1.99254417,38.35859],"rotation":[0.0,0.0,0.0,1.0],"scale":[2.0,1.0,2.0],"name":"A001-A001-Dianti02"},{"translation":[0.0,0.0,0.0],"rotation":[0.0,0.0,0.0,1.0],"scale":[1.0,1.0,1.0],"name":"Default light"}],"meshes":[{"primitives":[{"attributes":{"POSITION":1,"NORMAL":2},"indices":0,"mode":4,"material":0}],"name":"A001-A001-Dianti03"},{"primitives":[{"attributes":{"POSITION":4,"NORMAL":5},"indices":3,"mode":4,"material":0}],"name":"A001-A001-Dianti04"},{"primitives":[{"attributes":{"POSITION":7,"NORMAL":8},"indices":6,"mode":4,"material":0}],"name":"A001-A001-Dianti05"},{"primitives":[{"attributes":{"POSITION":10,"NORMAL":11},"indices":9,"mode":4,"material":0}],"name":"A001-A001-Dianti06"},{"primitives":[{"attributes":{"POSITION":13,"NORMAL":14},"indices":12,"mode":4,"material":0}],"name":"A001-A001-Dianti01"},{"primitives":[{"attributes":{"POSITION":16,"NORMAL":17},"indices":15,"mode":4,"material":0}],"name":"A001-A001-Diantizhu01"},{"primitives":[{"attributes":{"POSITION":19,"NORMAL":20},"indices":18,"mode":4,"material":1}],"name":"A001-A001-Dianti02"}],"accessors":[{"bufferView":0,"componentType":5123,"count":36,"type":"SCALAR","name":"accessorIndices"},{"bufferView":1,"componentType":5126,"count":36,"max":[0.0502243042,0.1851548,0.0551452637],"min":[-0.0502243042,-0.1851548,-0.0551452637],"type":"VEC3","name":"accessorPositions"},{"bufferView":1,"byteOffset":432,"componentType":5126,"count":36,"type":"VEC3","name":"accessorNormals"},{"bufferView":0,"byteOffset":72,"componentType":5123,"count":36,"type":"SCALAR","name":"accessorIndices"},{"bufferView":1,"byteOffset":864,"componentType":5126,"count":36,"max":[0.0502319336,0.185154915,0.0551452637],"min":[-0.0502319336,-0.185154915,-0.05514145],"type":"VEC3","name":"accessorPositions"},{"bufferView":1,"byteOffset":1296,"componentType":5126,"count":36,"type":"VEC3","name":"accessorNormals"},{"bufferView":0,"byteOffset":144,"componentType":5123,"count":36,"type":"SCALAR","name":"accessorIndices"},{"bufferView":1,"byteOffset":1728,"componentType":5126,"count":36,"max":[0.0502319336,0.1851548,0.0551452637],"min":[-0.0502319336,-0.185154855,-0.0551452637],"type":"VEC3","name":"accessorPositions"},{"bufferView":1,"byteOffset":2160,"componentType":5126,"count":36,"type":"VEC3","name":"accessorNormals"},{"bufferView":0,"byteOffset":216,"componentType":5123,"count":36,"type":"SCALAR","name":"accessorIndices"},{"bufferView":1,"byteOffset":2592,"componentType":5126,"count":36,"max":[0.0502319336,0.1851548,0.0551452637],"min":[-0.0502319336,-0.185154855,-0.0551452637],"type":"VEC3","name":"accessorPositions"},{"bufferView":1,"byteOffset":3024,"componentType":5126,"count":36,"type":"VEC3","name":"accessorNormals"},{"bufferView":0,"byteOffset":288,"componentType":5123,"count":36,"type":"SCALAR","name":"accessorIndices"},{"bufferView":1,"byteOffset":3456,"componentType":5126,"count":36,"max":[0.0502243042,0.1851548,0.0551452637],"min":[-0.0502243042,-0.185154915,-0.05514145],"type":"VEC3","name":"accessorPositions"},{"bufferView":1,"byteOffset":3888,"componentType":5126,"count":36,"type":"VEC3","name":"accessorNormals"},{"bufferView":0,"byteOffset":360,"componentType":5123,"count":216,"type":"SCALAR","name":"accessorIndices"},{"bufferView":1,"byteOffset":4320,"componentType":5126,"count":216,"max":[-85.82749,6.62597275,38.733696],"min":[-86.56366,0.555662155,38.1004753],"type":"VEC3","name":"accessorPositions"},{"bufferView":1,"byteOffset":6912,"componentType":5126,"count":216,"type":"VEC3","name":"accessorNormals"},{"bufferView":0,"byteOffset":792,"componentType":5123,"count":36,"type":"SCALAR","name":"accessorIndices"},{"bufferView":1,"byteOffset":9504,"componentType":5126,"count":36,"max":[0.0502243042,0.1851548,0.0551452637],"min":[-0.0502243042,-0.185154915,-0.0551452637],"type":"VEC3","name":"accessorPositions"},{"bufferView":1,"byteOffset":9936,"componentType":5126,"count":36,"type":"VEC3","name":"accessorNormals"},{"bufferView":2,"componentType":5126,"count":65,"max":[3.33333325],"min":[0.0],"type":"SCALAR","name":"accessorAnimationInput"},{"bufferView":3,"componentType":5126,"count":65,"type":"VEC3","name":"accessorAnimationPositions"},{"bufferView":2,"byteOffset":260,"componentType":5126,"count":77,"max":[3.33333325],"min":[0.0],"type":"SCALAR","name":"accessorAnimationInput"},{"bufferView":3,"byteOffset":780,"componentType":5126,"count":77,"type":"VEC3","name":"accessorAnimationPositions"},{"bufferView":2,"byteOffset":568,"componentType":5126,"count":74,"max":[3.33333325],"min":[0.0],"type":"SCALAR","name":"accessorAnimationInput"},{"bufferView":3,"byteOffset":1704,"componentType":5126,"count":74,"type":"VEC3","name":"accessorAnimationPositions"},{"bufferView":2,"byteOffset":864,"componentType":5126,"count":61,"max":[3.33333325],"min":[0.0],"type":"SCALAR","name":"accessorAnimationInput"},{"bufferView":3,"byteOffset":2592,"componentType":5126,"count":61,"type":"VEC3","name":"accessorAnimationPositions"},{"bufferView":2,"byteOffset":1108,"componentType":5126,"count":79,"max":[3.33333325],"min":[0.0],"type":"SCALAR","name":"accessorAnimationInput"},{"bufferView":3,"byteOffset":3324,"componentType":5126,"count":79,"type":"VEC3","name":"accessorAnimationPositions"}],"bufferViews":[{"buffer":0,"byteLength":864,"name":"bufferViewScalar"},{"buffer":0,"byteOffset":864,"byteLength":10368,"byteStride":12,"name":"bufferViewFloatVec3"},{"buffer":0,"byteOffset":11232,"byteLength":1424,"name":"bufferViewAnimationFloatScalar"},{"buffer":0,"byteOffset":12656,"byteLength":4272,"name":"bufferViewAnimationFloatVec3"}],"buffers":[{"uri":"A001A001Dianti.bin","byteLength":16928}],"materials":[{"pbrMetallicRoughness":{"baseColorFactor":[0.5,0.482352972,0.0,1.0],"metallicFactor":0.0,"roughnessFactor":0.450053632},"emissiveFactor":[0.0,0.0,0.0],"alphaMode":"OPAQUE","name":"dian"},{"pbrMetallicRoughness":{"baseColorFactor":[0.5,0.0,0.0,1.0],"metallicFactor":0.0,"roughnessFactor":0.450053632},"emissiveFactor":[0.0,0.0,0.0],"alphaMode":"OPAQUE","name":"hong"}],"animations":[{"channels":[{"sampler":0,"target":{"node":0,"path":"translation"}},{"sampler":1,"target":{"node":1,"path":"translation"}},{"sampler":2,"target":{"node":2,"path":"translation"}},{"sampler":3,"target":{"node":3,"path":"translation"}},{"sampler":4,"target":{"node":4,"path":"translation"}}],"samplers":[{"input":21,"interpolation":"LINEAR","output":22},{"input":23,"interpolation":"LINEAR","output":24},{"input":25,"interpolation":"LINEAR","output":26},{"input":27,"interpolation":"LINEAR","output":28},{"input":29,"interpolation":"LINEAR","output":30}],"name":"All Animations"}]}