{"asset":{"version":"2.0","generator":"babylon.js glTF exporter for 3ds max 2019 v1.4.2"},"scene":0,"scenes":[{"nodes":[0,1],"extensions":{}}],"nodes":[{"mesh":0,"translation":[-1.28746033E-05,0.0,-9.95835947E-09],"rotation":[0.0,0.0,0.0,1.0],"scale":[0.8627058,0.8196384,0.8627058],"name":"dian"},{"translation":[0.0,0.0,0.0],"rotation":[0.0,0.0,0.0,1.0],"scale":[1.0,1.0,1.0],"name":"Default light"}],"meshes":[{"primitives":[{"attributes":{"POSITION":1,"NORMAL":2,"TEXCOORD_0":3},"indices":0,"mode":4,"material":0}],"name":"dian"}],"accessors":[{"bufferView":0,"componentType":5123,"count":78,"type":"SCALAR","name":"accessorIndices"},{"bufferView":1,"componentType":5126,"count":78,"max":[391.466125,-3.66020036,391.466125],"min":[-391.466125,-3.66020036,-391.466125],"type":"VEC3","name":"accessorPositions"},{"bufferView":1,"byteOffset":936,"componentType":5126,"count":78,"type":"VEC3","name":"accessorNormals"},{"bufferView":2,"componentType":5126,"count":78,"type":"VEC2","name":"accessorUVs"}],"bufferViews":[{"buffer":0,"byteLength":156,"name":"bufferViewScalar"},{"buffer":0,"byteOffset":156,"byteLength":1872,"byteStride":12,"name":"bufferViewFloatVec3"},{"buffer":0,"byteOffset":2028,"byteLength":624,"byteStride":8,"name":"bufferViewFloatVec2"}],"buffers":[{"uri":"dian.bin","byteLength":2652}],"materials":[{"pbrMetallicRoughness":{"baseColorFactor":[0.5,0.5,0.5,1.0],"baseColorTexture":{"index":0,"texCoord":0},"metallicFactor":0.0,"roughnessFactor":0.450053632},"emissiveFactor":[0.0,0.0,0.0],"alphaMode":"OPAQUE","name":"dian"}],"textures":[{"sampler":0,"source":0,"name":"dian.jpg"}],"images":[{"uri":"dian.jpg"}],"samplers":[{"magFilter":9729,"minFilter":9987,"wrapS":10497,"wrapT":10497}]}