{"asset":{"version":"2.0","generator":"babylon.js glTF exporter for 3ds max 2019 v1.4.2"},"scene":0,"scenes":[{"nodes":[0,1,2],"extensions":{}}],"nodes":[{"mesh":0,"translation":[0.0,0.0,0.0],"rotation":[0.0,0.0,0.0,1.0],"scale":[1.0,1.0,1.0],"name":"dimian"},{"mesh":1,"translation":[0.0,0.0,0.0],"rotation":[0.0,0.0,0.0,1.0],"scale":[1.0,1.0,1.0],"name":"qiao"},{"translation":[0.0,0.0,0.0],"rotation":[0.0,0.0,0.0,1.0],"scale":[1.0,1.0,1.0],"name":"Default light"}],"meshes":[{"primitives":[{"attributes":{"POSITION":1,"NORMAL":2,"TEXCOORD_0":3},"indices":0,"mode":4,"material":0}],"name":"dimian"},{"primitives":[{"attributes":{"POSITION":5,"NORMAL":6,"TEXCOORD_0":7},"indices":4,"mode":4,"material":1}],"name":"qiao"}],"accessors":[{"bufferView":0,"componentType":5123,"count":189,"type":"SCALAR","name":"accessorIndices"},{"bufferView":1,"componentType":5126,"count":189,"max":[155.586151,-2.21772742,90.1105],"min":[-161.77774,-2.21772742,-87.80611],"type":"VEC3","name":"accessorPositions"},{"bufferView":1,"byteOffset":2268,"componentType":5126,"count":189,"type":"VEC3","name":"accessorNormals"},{"bufferView":2,"componentType":5126,"count":189,"type":"VEC2","name":"accessorUVs"},{"bufferView":0,"byteOffset":380,"componentType":5125,"count":148743,"type":"SCALAR","name":"accessorIndices"},{"bufferView":1,"byteOffset":4536,"componentType":5126,"count":148743,"max":[161.77774,2.21772766,105.800415],"min":[-150.490433,-2.20565224,-105.800461],"type":"VEC3","name":"accessorPositions"},{"bufferView":1,"byteOffset":1789452,"componentType":5126,"count":148743,"type":"VEC3","name":"accessorNormals"},{"bufferView":2,"byteOffset":1512,"componentType":5126,"count":148743,"type":"VEC2","name":"accessorUVs"}],"bufferViews":[{"buffer":0,"byteLength":595352,"name":"bufferViewScalar"},{"buffer":0,"byteOffset":595352,"byteLength":3574368,"byteStride":12,"name":"bufferViewFloatVec3"},{"buffer":0,"byteOffset":4169720,"byteLength":1191456,"byteStride":8,"name":"bufferViewFloatVec2"}],"buffers":[{"uri":"dimian.bin","byteLength":5361176}],"materials":[{"pbrMetallicRoughness":{"baseColorFactor":[0.5,0.5,0.5,1.0],"baseColorTexture":{"index":0,"texCoord":0},"metallicFactor":0.0,"roughnessFactor":0.450053632},"emissiveFactor":[0.0,0.0,0.0],"alphaMode":"OPAQUE","name":"dimian"},{"pbrMetallicRoughness":{"baseColorFactor":[0.5,0.5,0.5,1.0],"baseColorTexture":{"index":1,"texCoord":0},"metallicFactor":0.0,"roughnessFactor":0.450053632},"emissiveFactor":[0.0,0.0,0.0],"alphaMode":"BLEND","name":"qiao"}],"textures":[{"sampler":0,"source":0,"name":"8K.jpg"},{"sampler":0,"source":1,"name":"qiaoDiffuseMap.jpg"}],"images":[{"uri":"8K.jpg"},{"uri":"qiaoDiffuseMap.jpg"}],"samplers":[{"magFilter":9729,"minFilter":9987,"wrapS":10497,"wrapT":10497}]}