<?xml version="1.0" encoding="UTF-8"?>
<!DOCTYPE svg PUBLIC "-//W3C//DTD SVG 1.1//EN" "http://www.w3.org/Graphics/SVG/1.1/DTD/svg11.dtd">
<!-- Creator: CorelDRAW X8 -->
<svg xmlns="http://www.w3.org/2000/svg" xml:space="preserve" width="163.139mm" height="42.1814mm" version="1.1" style="shape-rendering:geometricPrecision; text-rendering:geometricPrecision; image-rendering:optimizeQuality; fill-rule:evenodd; clip-rule:evenodd"
viewBox="0 0 12127 3136"
 xmlns:xlink="http://www.w3.org/1999/xlink">
 <defs>
  <style type="text/css">
   <![CDATA[
    .fil0 {fill:#1D1819}
    .fil1 {fill:#6BC30D}
   ]]>
  </style>
 </defs>
 <g id="图层_x0020_1">
  <metadata id="CorelCorpID_0Corel-Layer"/>
  <path class="fil0" d="M9731 446l522 -150 -475 1133 0 119 462 1284 -509 -148 0 -2238zm-215 467c0,-189 -31,-430 -200,-547 -181,-126 -561,-139 -773,-139 -209,0 -590,14 -768,138 -168,119 -200,358 -200,548l0 1309c0,190 32,430 200,548 178,125 559,139 768,139 212,0 592,-14 773,-139 169,-117 200,-359 200,-548l0 -1309zm-643 -146l0 1602c0,202 -139,297 -330,297 -191,0 -325,-98 -325,-297l0 -1602c0,-200 134,-298 325,-298 191,0 330,96 330,298zm-1498 146c0,-189 -31,-430 -200,-547 -180,-126 -561,-139 -773,-139 -209,0 -589,14 -768,138 -168,118 -200,358 -200,548l0 1309c0,190 32,430 200,548 179,125 559,139 768,139 212,0 593,-14 773,-139 169,-117 200,-359 200,-548l0 -1309zm-643 -146l0 1602c0,201 -138,297 -330,297 -190,0 -325,-98 -325,-297l0 -1602c0,-200 135,-298 325,-298 192,0 330,96 330,298zm-4372 -503l-634 0 0 2608 2492 0c193,0 681,-5 852,-107 182,-103 206,-392 206,-576 0,-106 -3,-248 -34,-350 -32,-109 -94,-188 -201,-229 -75,-29 -161,-45 -240,-56l-90 -13 0 -177 77 -21c114,-31 278,-88 358,-184 69,-79 82,-208 82,-308 0,-100 -4,-234 -36,-328 -58,-170 -258,-220 -417,-238 -165,-19 -339,-21 -505,-21l-940 0 0 1910 634 0 0 -648 194 0c171,0 331,58 406,219 49,99 54,255 54,364 0,129 -9,267 -76,378 -79,136 -250,165 -394,165l-1788 0 0 -2388zm1604 183l194 0c121,0 294,11 381,108 71,79 79,220 79,322 0,112 -10,263 -81,356 -79,102 -240,117 -360,117l-213 0 0 -903zm-3964 170l1537 0 0 -353 -1537 0 0 353zm634 2255l0 -1339 870 0 0 -327 -1504 0 0 1666 634 0zm11493 -2749l-633 175 472 34 0 2455 -680 19 841 208 0 -2891zm-1280 3l437 -126 0 3136 -429 -125 -581 -1622 573 -1263z"/>
  <polygon class="fil1" points="11284,0 10847,126 10274,1389 10855,3011 11284,3136 "/>
 </g>
</svg>
