{"asset":{"version":"2.0","generator":"babylon.js glTF exporter for 3ds max 2019 v1.4.2"},"scene":0,"scenes":[{"nodes":[0,1,2,3,4],"extensions":{}}],"nodes":[{"mesh":0,"translation":[-81.67372,-0.8235191,28.3510933],"rotation":[0.0,0.0,0.0,1.0],"scale":[2.0,1.0,2.0],"name":"A001-C001-Dianti02"},{"mesh":1,"translation":[-81.96971,-1.9925456,28.3622971],"rotation":[0.0,0.0,0.0,1.0],"scale":[2.0,1.0,2.0],"name":"A001-C001-Dianti03"},{"mesh":2,"translation":[-79.26451,-0.472545624,29.4094658],"rotation":[0.0,0.0,0.0,1.0],"scale":[1.0,1.0,1.0],"name":"A001-C001-Diantizhu"},{"mesh":3,"translation":[-76.5566559,-1.9925456,30.467144],"rotation":[0.0,0.0,0.0,1.0],"scale":[2.0,1.0,2.0],"name":"A001-C001-Dianti01"},{"translation":[0.0,0.0,0.0],"rotation":[0.0,0.0,0.0,1.0],"scale":[1.0,1.0,1.0],"name":"Default light"}],"meshes":[{"primitives":[{"attributes":{"POSITION":1,"NORMAL":2},"indices":0,"mode":4,"material":0}],"name":"A001-C001-Dianti02"},{"primitives":[{"attributes":{"POSITION":4,"NORMAL":5},"indices":3,"mode":4,"material":0}],"name":"A001-C001-Dianti03"},{"primitives":[{"attributes":{"POSITION":7,"NORMAL":8},"indices":6,"mode":4,"material":0}],"name":"A001-C001-Diantizhu"},{"primitives":[{"attributes":{"POSITION":10,"NORMAL":11},"indices":9,"mode":4,"material":0}],"name":"A001-C001-Dianti01"}],"accessors":[{"bufferView":0,"componentType":5123,"count":36,"type":"SCALAR","name":"accessorIndices"},{"bufferView":1,"componentType":5126,"count":36,"max":[0.0502319336,0.1851548,0.0551433563],"min":[-0.0502319336,-0.1851548,-0.0551433563],"type":"VEC3","name":"accessorPositions"},{"bufferView":1,"byteOffset":432,"componentType":5126,"count":36,"type":"VEC3","name":"accessorNormals"},{"bufferView":0,"byteOffset":72,"componentType":5123,"count":36,"type":"SCALAR","name":"accessorIndices"},{"bufferView":1,"byteOffset":864,"componentType":5126,"count":36,"max":[0.0502243042,0.1851548,0.0551433563],"min":[-0.0502243042,-0.185154915,-0.0551433563],"type":"VEC3","name":"accessorPositions"},{"bufferView":1,"byteOffset":1296,"componentType":5126,"count":36,"type":"VEC3","name":"accessorNormals"},{"bufferView":0,"byteOffset":144,"componentType":5123,"count":108,"type":"SCALAR","name":"accessorIndices"},{"bufferView":1,"byteOffset":1728,"componentType":5126,"count":108,"max":[2.73152924,1.7051549,1.08302689],"min":[-2.73152924,-1.7051549,-1.08302689],"type":"VEC3","name":"accessorPositions"},{"bufferView":1,"byteOffset":3024,"componentType":5126,"count":108,"type":"VEC3","name":"accessorNormals"},{"bufferView":0,"byteOffset":360,"componentType":5123,"count":36,"type":"SCALAR","name":"accessorIndices"},{"bufferView":1,"byteOffset":4320,"componentType":5126,"count":36,"max":[0.0502243042,0.1851548,0.0551433563],"min":[-0.0502243042,-0.185154915,-0.0551433563],"type":"VEC3","name":"accessorPositions"},{"bufferView":1,"byteOffset":4752,"componentType":5126,"count":36,"type":"VEC3","name":"accessorNormals"},{"bufferView":2,"componentType":5126,"count":58,"max":[3.33333325],"min":[0.0],"type":"SCALAR","name":"accessorAnimationInput"},{"bufferView":3,"componentType":5126,"count":58,"type":"VEC3","name":"accessorAnimationPositions"},{"bufferView":2,"byteOffset":232,"componentType":5126,"count":69,"max":[3.33333325],"min":[0.0],"type":"SCALAR","name":"accessorAnimationInput"},{"bufferView":3,"byteOffset":696,"componentType":5126,"count":69,"type":"VEC3","name":"accessorAnimationPositions"},{"bufferView":2,"byteOffset":508,"componentType":5126,"count":46,"max":[3.33333325],"min":[0.0],"type":"SCALAR","name":"accessorAnimationInput"},{"bufferView":3,"byteOffset":1524,"componentType":5126,"count":46,"type":"VEC3","name":"accessorAnimationPositions"}],"bufferViews":[{"buffer":0,"byteLength":432,"name":"bufferViewScalar"},{"buffer":0,"byteOffset":432,"byteLength":5184,"byteStride":12,"name":"bufferViewFloatVec3"},{"buffer":0,"byteOffset":5616,"byteLength":692,"name":"bufferViewAnimationFloatScalar"},{"buffer":0,"byteOffset":6308,"byteLength":2076,"name":"bufferViewAnimationFloatVec3"}],"buffers":[{"uri":"A001C001Dianti.bin","byteLength":8384}],"materials":[{"pbrMetallicRoughness":{"baseColorFactor":[0.5,0.482352972,0.0,1.0],"metallicFactor":0.0,"roughnessFactor":0.450053632},"emissiveFactor":[0.0,0.0,0.0],"alphaMode":"OPAQUE","name":"dian"}],"animations":[{"channels":[{"sampler":0,"target":{"node":0,"path":"translation"}},{"sampler":1,"target":{"node":1,"path":"translation"}},{"sampler":2,"target":{"node":3,"path":"translation"}}],"samplers":[{"input":12,"interpolation":"LINEAR","output":13},{"input":14,"interpolation":"LINEAR","output":15},{"input":16,"interpolation":"LINEAR","output":17}],"name":"All Animations"}]}